<?xml version="1.0" standalone="no"?>
<!DOCTYPE svg PUBLIC "-//W3C//DTD SVG 1.1//EN" "http://www.w3.org/Graphics/SVG/1.1/DTD/svg11.dtd" >
<svg xmlns="http://www.w3.org/2000/svg">
<metadata>Generated by IcoMoon</metadata>
<defs>
<font id="startup-icons" horiz-adv-x="1024">
<font-face units-per-em="1024" ascent="960" descent="-64" />
<missing-glyph horiz-adv-x="1024" />
<glyph unicode="&#x20;" horiz-adv-x="512" d="" />
<glyph unicode="&#xe900;" glyph-name="ambulance" d="M282.796 359.646h22.4v-22.4c0-15.388 12.478-27.865 27.865-27.865s27.865 12.478 27.865 27.865v22.4h22.4c15.388 0 27.865 12.478 27.865 27.865s-12.478 27.865-27.865 27.865h-22.4v22.397c0 15.388-12.478 27.865-27.865 27.865s-27.865-12.478-27.865-27.865v-22.397h-22.4c-15.388 0-27.865-12.478-27.865-27.865s12.478-27.865 27.865-27.865zM860.932 571.218c-12.805 45.78-57.541 77.055-105.079 77.055h-37.591l-8.906 66.164c-3.81 28.303-28.22 49.645-56.779 49.645h-51.279c-28.558 0-52.969-21.342-56.775-49.645l-8.909-66.164h-500.784c-19.235 0-34.83-15.594-34.83-34.83v-477.17c0-19.235 15.594-34.83 34.83-34.83h24.945c2.641-66.222 57.313-119.294 124.173-119.294s121.532 53.069 124.173 119.294h407.762c2.641-66.222 57.313-119.294 124.173-119.294s121.532 53.069 124.173 119.294h24.941c19.235 0 34.83 15.594 34.83 34.83v147.687c0 37.305-13.471 66.619-37.926 82.541-18.356 11.95-60.699 26.893-86.633 35.457 0-0.003-26.821 127.466-38.509 169.26zM954.34 283.96v-112.857h-8.168c-21.856 35.74-61.247 59.647-106.12 59.647s-84.261-23.907-106.12-59.647h-67.815v168.926h198.418c33.161-10.474 73.080-25.107 83.527-31.909 2.61-1.693 6.278-10.309 6.278-24.159zM793.9 552.21l32.354-142.522h-160.134v168.926h89.733c17.022 0 32.13-10.55 38.047-26.403zM612.114 694.422h29.648l6.213-46.149h-42.074l6.213 46.149zM69.66 578.613h526.801v-407.511h-306.397c-21.856 35.74-61.247 59.647-106.12 59.647s-84.261-23.907-106.12-59.647h-8.168v407.511zM183.944 51.809c-30.13 0-54.641 24.51-54.641 54.641s24.51 54.641 54.641 54.641 54.641-24.51 54.641-54.641c0-30.13-24.51-54.641-54.641-54.641zM840.056 51.809c-30.13 0-54.641 24.51-54.641 54.641s24.51 54.641 54.641 54.641c30.13 0 54.641-24.51 54.641-54.641-0.003-30.13-24.514-54.641-54.641-54.641zM333.062 224.085c90.112 0 163.426 73.314 163.426 163.426s-73.314 163.423-163.426 163.423-163.426-73.311-163.426-163.423 73.314-163.426 163.426-163.426zM333.062 495.204c59.385 0 107.696-48.314 107.696-107.692 0-59.385-48.314-107.696-107.696-107.696s-107.696 48.314-107.696 107.696c-0.003 59.378 48.311 107.692 107.696 107.692zM626.94 786.72c19.235 0 34.83 15.594 34.83 34.83v57.472c0 19.235-15.594 34.83-34.83 34.83s-34.83-15.594-34.83-34.83v-57.468c0-19.235 15.594-34.833 34.83-34.833zM741.876 729.252h57.468c19.235 0 34.83 15.594 34.83 34.83s-15.594 34.83-34.83 34.83h-57.468c-19.235 0-34.83-15.594-34.83-34.83s15.598-34.83 34.83-34.83zM454.532 729.252h57.468c19.235 0 34.83 15.594 34.83 34.83s-15.594 34.83-34.83 34.83h-57.468c-19.235 0-34.83-15.594-34.83-34.83s15.594-34.83 34.83-34.83z" />
<glyph unicode="&#xe901;" glyph-name="antacid" d="M907.233 948.067c-6.672 7.585-16.284 11.933-26.383 11.933h-737.701c-10.099 0-19.711-4.348-26.379-11.933s-9.75-17.67-8.461-27.689l122.949-953.744c2.258-17.518 17.177-30.637 34.84-30.637h491.803c17.663 0 32.582 13.119 34.84 30.637l122.949 953.744c1.289 10.019-1.789 20.108-8.457 27.689zM840.904 889.744l-22.642-175.642h-612.521l-22.642 175.642h657.804zM727.009 6.256h-430.018l-82.192 637.587h174.601c2.134-14.891 14.908-26.348 30.389-26.348s28.251 11.457 30.389 26.348h359.024l-82.192-637.587zM512 301.337c-32.606 0-63.264-12.698-86.319-35.754-23.052-23.056-35.754-53.713-35.754-86.319s12.698-63.264 35.754-86.319c23.056-23.052 53.713-35.754 86.319-35.754s63.264 12.698 86.319 35.754c23.052 23.056 35.754 53.713 35.754 86.319s-12.698 63.264-35.754 86.319c-23.056 23.056-53.713 35.754-86.319 35.754zM556.091 135.177c-11.778-11.778-27.434-18.263-44.091-18.263s-32.313 6.489-44.091 18.263c-11.778 11.778-18.263 27.434-18.263 44.091s6.489 32.313 18.263 44.091c11.778 11.778 27.434 18.263 44.091 18.263s32.313-6.489 44.091-18.263c11.778-11.778 18.263-27.434 18.263-44.091s-6.489-32.313-18.263-44.091zM450.526 463.808c0-16.976-13.762-30.737-30.737-30.737s-30.737 13.762-30.737 30.737c0 16.976 13.762 30.737 30.737 30.737s30.737-13.762 30.737-30.737zM634.949 586.757c0-16.976-13.762-30.737-30.737-30.737s-30.737 13.762-30.737 30.737c0 16.976 13.762 30.737 30.737 30.737s30.737-13.762 30.737-30.737zM573.474 346.128c0-16.976-13.762-30.737-30.737-30.737s-30.737 13.762-30.737 30.737c0 16.976 13.762 30.737 30.737 30.737s30.737-13.762 30.737-30.737z" />
<glyph unicode="&#xe902;" glyph-name="bandage" d="M947.114 853.57l-29.537 29.544c-102.352 102.352-268.884 102.352-371.236 0l-469.454-469.454c-49.583-49.58-76.886-115.502-76.886-185.616 0.003-70.118 27.307-136.037 76.89-185.616l29.537-29.544c51.176-51.176 118.398-76.762 185.62-76.762s134.444 25.586 185.62 76.762l469.447 469.454c49.58 49.58 76.886 115.498 76.886 185.62s-27.303 136.037-76.886 185.613zM707.287 340.201h-302.583l-39.626 39.626h381.838l-39.629-39.626zM619.303 252.219h-126.621l-39.626 39.626h205.872l-39.626-39.626zM555.994 188.911l-14.953 14.953h29.906l-14.953-14.953zM316.719 428.185l-39.626 39.626h430.19l39.626-39.626h-430.19zM277.090 516.167l39.626 39.626h302.587l39.626-39.626h-381.838zM365.072 604.151l39.626 39.626h126.621l39.626-39.626h-205.872zM453.053 692.133l14.953 14.953 14.953-14.953h-29.906zM428.815 61.731c-36.533-36.533-85.106-56.654-136.771-56.654s-100.238 20.121-136.771 56.654l-29.537 29.541c-36.533 36.533-56.654 85.106-56.658 136.771 0 51.665 20.121 100.238 56.654 136.771l78.331 78.331 303.083-303.083-78.331-78.331zM898.265 531.185l-78.327-78.327-303.080 303.080 78.331 78.331c36.533 36.533 85.106 56.654 136.771 56.654s100.238-20.121 136.771-56.651l29.537-29.544c36.533-36.533 56.654-85.106 56.654-136.771s-20.125-100.238-56.658-136.771z" />
<glyph unicode="&#xe903;" glyph-name="bandages" d="M989.463 960h-740.804c-19.070 0-34.533-15.463-34.533-34.537v-179.59h-179.59c-19.073 0-34.537-15.463-34.537-34.533v-740.804c0-19.073 15.463-34.537 34.537-34.537h740.804c19.073 0 34.537 15.463 34.537 34.537v179.59h179.59c19.073 0 34.537 15.463 34.537 34.537v740.8c-0.003 19.073-15.467 34.537-34.54 34.537zM740.804 5.073h-671.73v671.73h145.053v-492.141c0-19.073 15.463-34.537 34.537-34.537h492.141v-145.053zM954.927 219.196h-671.73v671.73h671.73v-671.73zM557.759 664.712v89.798c0 13.353-10.823 24.176-24.176 24.176s-24.176-10.823-24.176-24.176v-89.795h-65.619v32.809c0 13.353-10.823 24.176-24.176 24.176s-24.176-10.823-24.176-24.176v-32.809h-32.809c-13.35 0-24.176-10.823-24.176-24.176s10.823-24.176 24.176-24.176h32.809v-65.615h-32.809c-13.35 0-24.176-10.823-24.176-24.176s10.823-24.176 24.176-24.176h32.809v-65.615h-32.809c-13.35 0-24.176-10.823-24.176-24.176s10.823-24.176 24.176-24.176h32.809v-32.816c0-13.353 10.823-24.176 24.176-24.176s24.176 10.823 24.176 24.176v32.813h65.619v-32.813c0-13.353 10.823-24.176 24.176-24.176s24.176 10.823 24.176 24.176v32.813h65.619v-32.813c0-13.353 10.823-24.176 24.176-24.176s24.176 10.823 24.176 24.176v32.809h32.809c13.35 0 24.176 10.823 24.176 24.176s-10.823 24.176-24.176 24.176h-32.809v65.619h32.809c13.35 0 24.176 10.823 24.176 24.176s-10.823 24.176-24.176 24.176h-32.809v65.615h32.809c13.35 0 24.176 10.823 24.176 24.176s-10.823 24.176-24.176 24.176h-146.78zM623.378 436.777h-65.619v65.619h65.619v-65.619zM623.378 616.36v-65.615h-65.619v65.619l65.619-0.003zM443.792 616.364h65.619v-65.615h-65.619v65.615zM443.792 502.396h65.619v-65.619h-65.619v65.619z" />
<glyph unicode="&#xe904;" glyph-name="blood" d="M832.977 5.029h-291.799c-33.002 0-61.509 19.559-74.58 47.69h16.222c19.060 0 34.513 15.453 34.513 34.513v82.206h34.433c77.552 0 140.643 63.092 140.643 140.643v535.824c0 19.060-15.453 34.513-34.513 34.513h-137.047c-8.72 45.273-48.611 79.582-96.387 79.582s-87.671-34.309-96.39-79.579h-137.051c-19.060 0-34.513-15.453-34.513-34.513v-535.824c0-77.552 63.092-140.643 140.643-140.643h34.437v-82.206c0-19.060 15.453-34.513 34.513-34.513h27.865c15.663-66.812 75.697-116.722 147.211-116.722h291.799c19.060 0 34.513 15.453 34.513 34.513s-15.453 34.516-34.513 34.516zM424.464 890.971c9.009 0 17.074-4.11 22.425-10.554h-44.853c5.351 6.444 13.415 10.554 22.428 10.554zM623.385 811.392v-164.409h-397.85v164.409h397.85zM225.535 310.081v267.874h397.85v-267.874c0-39.488-32.127-71.614-71.614-71.614h-254.617c-39.491-0.003-71.618 32.127-71.618 71.614zM448.309 169.438v-47.694h-47.694v47.694h47.694zM517.337 379.030c0 38.805-45.090 108.272-64.478 136.337-6.444 9.33-17.056 14.898-28.396 14.898s-21.952-5.568-28.396-14.898c-19.387-28.065-64.478-97.532-64.478-136.337 0-51.21 41.663-92.874 92.874-92.874s92.874 41.663 92.874 92.874zM400.615 378.833c0.672 8.106 10.274 28.603 23.859 52.262 13.629-23.714 23.242-44.208 23.831-52.069 0-13.15-10.699-23.845-23.845-23.845-13.081 0.003-23.738 10.592-23.845 23.652z" />
<glyph unicode="&#xe905;" glyph-name="blood-pressure-gauge" d="M966.494 937.055h-465.965c-19.087 0-34.561-15.474-34.561-34.561v-465.965c0-19.087 15.474-34.561 34.561-34.561h23.683v-58.985c0-57.827-47.049-104.876-104.876-104.876h-70.604c-57.827 0-104.876 47.049-104.876 104.876v272.477c79.441 16.074 139.436 86.43 139.436 170.539 0.003 95.946-78.052 174.001-173.997 174.001-95.939 0-173.994-78.055-173.994-174.001 0-84.113 59.995-154.465 139.433-170.539v-272.481c0-95.942 78.055-174.001 174.001-174.001h70.604c95.942 0 174.001 78.055 174.001 174.001v58.985h47.369v-233.724c0-57.827-47.049-104.872-104.876-104.872h-240.040c-13.364 34.057-46.539 58.247-85.278 58.247h-60.681c-38.74 0-71.914-24.19-85.278-58.247h-7.051c-19.087 0-34.561-15.474-34.561-34.561s15.474-34.561 34.561-34.561h7.051c13.364-34.057 46.539-58.247 85.278-58.247h60.678c38.74 0 71.914 24.19 85.278 58.247h240.033c95.942 0 174.001 78.055 174.001 173.997v233.724h256.665c19.087 0 34.561 15.474 34.561 34.561v465.965c0.003 19.087-15.47 34.561-34.557 34.561zM106.451 765.506c4.351 0.669 8.457 2.71 11.598 5.823 3.872 3.872 6.082 9.195 6.082 14.657 0 5.496-2.21 10.819-6.082 14.688-3.113 3.117-7.24 5.137-11.602 5.792 9.547 48.062 52.027 84.409 102.852 84.409s93.308-36.347 102.855-84.406c-4.358-0.655-8.471-2.676-11.616-5.796-3.868-3.872-6.082-9.195-6.082-14.688 0-5.461 2.213-10.785 6.082-14.657 3.144-3.117 7.254-5.158 11.612-5.823-8.24-41.422-40.95-74.121-82.372-82.358-0.662 4.361-2.686 8.485-5.827 11.629-3.837 3.834-9.195 6.047-14.657 6.047s-10.819-2.213-14.657-6.047c-3.141-3.141-5.165-7.268-5.827-11.626-41.422 8.233-74.121 40.936-82.361 82.354zM232.982 27.591c0-12.388-10.078-22.466-22.466-22.466h-60.681c-12.388 0-22.466 10.078-22.466 22.466v2.438c0 12.388 10.078 22.466 22.466 22.466h60.678c12.388 0 22.466-10.078 22.466-22.466v-2.438zM535.090 867.93h47.369v-396.84h-47.369v396.84zM931.93 471.090h-280.348v396.84h280.348v-396.84zM209.296 765.264c11.454 0 20.739 9.285 20.739 20.739v58.244c0 11.454-9.285 20.739-20.739 20.739s-20.739-9.285-20.739-20.739v-58.247c0.003-11.45 9.288-20.735 20.739-20.735z" />
<glyph unicode="&#xe906;" glyph-name="blood-sample" d="M1013.936 709.403l-240.537 240.537c-13.415 13.409-35.168 13.415-48.597 0l-80.182-80.179c-6.444-6.444-10.064-15.184-10.064-24.297s3.62-17.853 10.064-24.297l15.794-15.794-617.138-617.141c-27.907-27.903-43.277-65.008-43.277-104.472 0-39.467 15.37-76.569 43.277-104.479 27.907-27.907 65.015-43.277 104.479-43.277s76.569 15.37 104.476 43.277l617.141 617.141 15.794-15.794c6.447-6.444 15.184-10.064 24.297-10.064s17.856 3.62 24.297 10.064l80.179 80.182c13.415 13.415 13.415 35.175-0.003 48.593zM203.635 27.874c-14.926-14.929-34.771-23.149-55.879-23.149s-40.957 8.22-55.882 23.149c-14.929 14.926-23.149 34.775-23.149 55.882 0 21.111 8.22 40.953 23.149 55.879l416.689 416.689 111.764-111.764-416.692-416.685zM668.92 493.159l-111.764 111.764 151.855 151.855 111.764-111.764-151.855-151.855zM909.46 653.517l-191.943 191.947 31.585 31.585 191.943-191.943-31.585-31.589z" />
<glyph unicode="&#xe907;" glyph-name="cardiogram" d="M213.592 673.935c3.244-1.503 6.73-2.251 10.216-2.251 3.631 0 7.258 0.814 10.605 2.438 3.727 1.807 91.319 45.115 91.319 115.94 0 34.799-28.313 63.112-63.112 63.112-14.622 0-28.103-4.999-38.812-13.381-10.712 8.378-24.19 13.381-38.812 13.381-34.799 0-63.112-28.313-63.112-63.112 0-72.794 87.967-114.388 91.708-116.126zM184.996 804.576c8.002 0 14.515-6.513 14.515-14.515 0-13.419 10.878-24.297 24.297-24.297s24.297 10.878 24.297 24.297c0 8.002 6.513 14.515 14.515 14.515s14.515-6.513 14.515-14.515c0-28.151-32.575-53.813-53.524-66.467-20.432 12.078-53.131 37.488-53.131 66.467 0 8.002 6.513 14.515 14.515 14.515zM970.614 960h-917.228c-19.17 0-34.713-15.543-34.713-34.713v-687.918c0-19.17 15.543-34.713 34.713-34.713h917.228c19.17 0 34.713 15.543 34.713 34.713v687.918c0 19.17-15.543 34.713-34.713 34.713zM935.902 890.575v-346.688h-172.004l-48.18 108.82c-5.375 12.147-17.222 20.159-30.499 20.635-13.195 0.579-25.662-6.665-31.896-18.404l-87.316-164.347-25.097 37.788c-7.009 10.557-19.222 16.463-31.851 15.384-12.629-1.072-23.676-8.944-28.803-20.535l-25.586-57.789-82.916 187.271c-5.558 12.56-18.004 20.659-31.741 20.659s-26.179-8.099-31.741-20.659l-48.183-108.82h-171.991v346.684h847.803zM88.098 272.082v202.383h194.594c13.736 0 26.179 8.099 31.741 20.659l25.59 57.792 82.916-187.275c5.558-12.56 18.004-20.659 31.741-20.659s26.179 8.099 31.741 20.659l31.696 71.587 22.3-33.578c6.761-10.185 18.304-16.087 30.613-15.467 12.216 0.6 23.218 7.582 28.955 18.387l81.158 152.755 28.427-64.202c5.558-12.56 18.004-20.659 31.741-20.659h194.598v-202.383h-847.81zM970.614 177.402h-917.228c-19.17 0-34.713-15.543-34.713-34.713v-171.98c0-19.17 15.543-34.713 34.713-34.713h917.228c19.17 0 34.713 15.543 34.713 34.713v171.98c0 19.173-15.543 34.713-34.713 34.713zM935.902 5.425h-847.803v102.555h847.803v-102.555z" />
<glyph unicode="&#xe908;" glyph-name="clinic-history" d="M849.13 903.814h-134.165v21.783c0 18.997-15.405 34.402-34.402 34.402h-337.127c-18.997 0-34.402-15.405-34.402-34.402v-21.787h-134.165c-18.997 0-34.402-15.405-34.402-34.402v-899.010c0-18.997 15.405-34.402 34.402-34.402h674.257c18.997 0 34.402 15.405 34.402 34.402v899.013c0 18.997-15.401 34.402-34.399 34.402zM377.835 891.199h268.326v-43.573h-268.326v43.573zM814.728 4.801h-605.456v830.209h99.762v-21.787c0-18.997 15.405-34.402 34.402-34.402h337.13c18.997 0 34.402 15.405 34.402 34.402v21.787h99.762v-830.209zM358.759 433.181h67.76v-67.76c0-18.997 15.405-34.402 34.402-34.402h102.162c18.997 0 34.402 15.405 34.402 34.402v67.76h67.76c18.997 0 34.402 15.405 34.402 34.402v102.159c0 18.997-15.405 34.402-34.402 34.402h-67.76v67.756c0 18.997-15.405 34.402-34.402 34.402h-102.162c-18.997 0-34.402-15.405-34.402-34.402v-67.76h-67.76c-18.997 0-34.402-15.405-34.402-34.402v-102.159c0-18.994 15.405-34.399 34.402-34.399zM393.157 535.34h67.76c18.997 0 34.402 15.405 34.402 34.402v67.76h33.361v-67.76c0-18.997 15.405-34.402 34.402-34.402h67.76v-33.358h-67.76c-18.997 0-34.402-15.405-34.402-34.402v-67.76h-33.361v67.763c0 18.997-15.405 34.402-34.402 34.402h-67.76v33.354zM343.436 160.752h337.13c18.997 0 34.402 15.405 34.402 34.402s-15.405 34.402-34.402 34.402h-337.13c-18.997 0-34.402-15.405-34.402-34.402 0-19.001 15.405-34.402 34.402-34.402zM708.66 117.176h-393.319c-18.997 0-34.402-15.405-34.402-34.402s15.405-34.402 34.402-34.402h393.319c18.997 0 34.402 15.405 34.402 34.402s-15.405 34.402-34.402 34.402z" />
<glyph unicode="&#xe909;" glyph-name="crutches" d="M407.628 960h-227.545c-49.621 0-89.988-40.367-89.988-89.991 0-39.305 25.338-72.78 60.53-85.013v-298.874c0-60.502 23.559-117.384 66.339-160.165l42.729-42.729v-313.068c0-18.866 15.298-34.161 34.161-34.161s34.161 15.298 34.161 34.161v313.068l42.732 42.732c42.78 42.78 66.339 99.662 66.339 160.165v298.87c35.192 12.233 60.53 45.708 60.53 85.013 0.003 49.624-40.367 89.991-89.988 89.991zM180.083 891.675h227.545c11.947 0 21.666-9.719 21.666-21.666s-9.719-21.666-21.666-21.666h-227.545c-11.947 0-21.666 9.719-21.666 21.666s9.719 21.666 21.666 21.666zM368.764 604.224h-149.818v175.797h149.818v-175.797zM322.436 374.275l-28.582-28.582-28.579 28.582c-29.875 29.875-46.328 69.598-46.328 111.85v49.776h149.818v-49.776c0-42.256-16.453-81.975-46.328-111.85zM933.905 870.009c0 49.624-40.367 89.991-89.988 89.991h-227.545c-49.617 0-89.988-40.367-89.988-89.991 0-39.305 25.335-72.78 60.526-85.013v-298.877c0-60.502 23.559-117.384 66.339-160.165l42.732-42.732v-313.065c0-18.866 15.298-34.161 34.161-34.161s34.161 15.298 34.161 34.161v313.072l42.732 42.732c42.78 42.78 66.339 99.662 66.339 160.165v298.874c35.195 12.233 60.53 45.708 60.53 85.009zM616.372 891.675h227.545c11.947 0 21.666-9.719 21.666-21.666s-9.719-21.666-21.666-21.666h-227.545c-11.943 0-21.663 9.719-21.663 21.666s9.719 21.666 21.663 21.666zM805.057 604.224h-149.821v175.797h149.821v-175.797zM758.729 374.275l-28.582-28.582-28.582 28.582c-29.875 29.875-46.328 69.598-46.328 111.85v49.776h149.821v-49.776c0-42.256-16.453-81.975-46.328-111.85z" />
<glyph unicode="&#xe90a;" glyph-name="dentist" d="M298.815-64c-21.776 0-42.298 9.992-56.092 28.038-106.624 139.526-174.952 298.853-203.086 473.553-27.227 169.081-5.834 284.996-1.265 306.517 28.675 135.185 111.785 215.892 222.311 215.892 100.735 0 132.186-33.633 179.786-84.544 9.637-10.309 20.563-21.99 33.133-34.568 10.181-10.178 23.817-15.788 38.395-15.788s28.213 5.61 38.395 15.788c12.571 12.574 23.497 24.255 33.133 34.568 47.607 50.91 79.058 84.544 179.793 84.544 110.526 0 193.639-80.706 222.315-215.892 4.565-21.521 25.962-137.437-1.265-306.517-28.134-174.704-96.463-334.027-203.090-473.553-17.394-22.756-45.501-32.706-73.304-25.962-27.686 6.709-48 28.296-53.014 56.33-30.048 167.898-83.489 268.136-142.957 268.136s-112.909-100.238-142.957-268.14c-5.013-28.031-25.328-49.617-53.014-56.327-5.761-1.396-11.533-2.076-17.218-2.076zM260.682 890.84c-108.747 0-144.384-112.65-154.662-161.085-11.378-53.631-17.708-159.447 1.893-281.169 26.296-163.306 90.14-312.199 189.757-442.554 0.428-0.565 0.81-1.041 2.062-0.745 1.041 0.252 1.096 0.579 1.227 1.296 26.541 148.318 84.702 325.118 211.037 325.118s184.492-176.8 211.037-325.115c0.128-0.721 0.186-1.048 1.227-1.3 1.234-0.29 1.631 0.183 2.062 0.745 99.618 130.355 163.461 279.249 189.757 442.554 19.604 121.722 13.271 227.538 1.893 281.169-10.274 48.431-45.915 161.085-154.662 161.085-70.718 0-84.292-14.519-129.269-62.623-10.009-10.702-21.352-22.835-34.747-36.23-23.245-23.249-54.248-36.050-87.302-36.050s-64.057 12.802-87.302 36.050c-13.391 13.391-24.735 25.528-34.747 36.23-44.97 48.104-58.544 62.623-129.262 62.623z" />
<glyph unicode="&#xe90b;" glyph-name="dna" d="M702.598 926.267c0 18.629-15.105 33.733-33.733 33.733s-33.733-15.105-33.733-33.733c0-7.647-0.097-15.143-0.255-22.535h-245.746c-0.162 7.392-0.255 14.888-0.255 22.535 0 18.629-15.105 33.733-33.733 33.733s-33.733-15.105-33.733-33.733c0-236.616 74.421-362.020 150.28-478.267-75.859-116.246-150.28-241.65-150.28-478.267 0-18.629 15.105-33.733 33.733-33.733s33.733 15.105 33.733 33.733c0 7.647 0.097 15.143 0.255 22.535h245.746c0.162-7.392 0.255-14.888 0.255-22.535 0-18.629 15.105-33.733 33.733-33.733s33.733 15.105 33.733 33.733c0 236.616-74.421 362.020-150.28 478.267 75.859 116.246 150.28 241.65 150.28 478.267zM597.375 678.669h-170.749c-4.999 14.408-9.606 29.389-13.75 45.063h198.249c-4.144-15.674-8.751-30.654-13.75-45.063zM569.489 611.199c-17.301-36.030-36.916-68.977-57.489-101.273-20.573 32.292-40.188 65.243-57.489 101.273h114.978zM630.912 836.265c-1.517-15.591-3.382-30.641-5.651-45.063h-226.521c-2.269 14.426-4.134 29.472-5.651 45.063h237.823zM426.625 217.331h170.749c4.999-14.408 9.606-29.389 13.75-45.063h-198.249c4.144 15.674 8.751 30.654 13.75 45.063zM454.511 284.801c17.301 36.030 36.916 68.977 57.489 101.273 20.573-32.292 40.188-65.243 57.489-101.273h-114.978zM393.088 59.735c1.517 15.591 3.382 30.641 5.651 45.063h226.518c2.269-14.426 4.134-29.472 5.651-45.063h-237.82z" />
<glyph unicode="&#xe90c;" glyph-name="emergency-call" d="M850.775 755.269h-54.972v54.975c0 19.297-15.646 34.947-34.947 34.947s-34.947-15.646-34.947-34.947v-54.975h-54.972c-19.297 0-34.947-15.646-34.947-34.947s15.646-34.947 34.947-34.947h54.972v-54.972c0-19.297 15.646-34.947 34.947-34.947s34.947 15.646 34.947 34.947v54.972h54.972c19.297 0 34.947 15.646 34.947 34.947s-15.65 34.947-34.947 34.947zM300.984 434.654l85.671 85.223c13.646 13.646 13.646 35.774 0 49.424l-205.707 205.707c-13.65 13.643-35.771 13.643-49.424 0l-82.282-82.285c-53.807-53.803-63.895-142.067-28.407-248.529 32.765-98.294 101.3-202.917 192.974-294.591 136.585-136.582 292.178-213.392 410.517-213.392 53.579 0 99.525 15.75 132.603 48.824l82.285 82.285c13.646 13.646 13.646 35.774 0 49.424l-205.707 205.707c-13.65 13.643-35.771 13.643-49.424 0l-85.226-85.675c-17.984-9.044-75.914 6.537-133.63 64.253-57.713 57.713-73.28 115.646-64.243 133.623zM608.797 248.313l156.286-156.286-32.861-32.861-156.286 156.286 32.861 32.861zM156.238 700.873l156.286-156.286-32.861-32.861-156.286 156.286 32.861 32.861zM530.504 22.933c-88.202 29.403-183.124 91.939-267.274 176.094-84.154 84.151-146.687 179.072-176.090 267.274-19.852 59.551-22.297 110.889-7.847 146.949l155.707-155.707c-19.818-54.044 10.495-135.62 80.806-205.938 56.144-56.141 119.48-86.816 170.239-86.816 12.826 0 24.841 1.965 35.74 5.965l155.665-155.669c-36.054-14.446-87.395-12.005-146.946 7.847zM919.355 959.793h-329.287c-57.703 0-104.645-46.942-104.645-104.645v-277.207c0-57.703 46.942-104.645 104.645-104.645h51.583v-69.208c0-13.24 7.478-25.335 19.318-31.258 4.944-2.476 10.295-3.689 15.622-3.689 7.427 0 14.805 2.365 20.97 6.989l129.552 97.163h92.239c57.703 0 104.645 46.942 104.645 104.645v277.211c0.003 57.703-46.939 104.645-104.641 104.645zM954.106 577.941c0-19.163-15.588-34.75-34.75-34.75h-103.886c-7.561 0-14.919-2.455-20.966-6.989l-82.958-62.216v34.261c0 19.297-15.646 34.947-34.947 34.947h-86.53c-19.163 0-34.75 15.588-34.75 34.75v277.204c0 19.163 15.588 34.75 34.75 34.75h329.287c19.163 0 34.75-15.588 34.75-34.75v-277.207z" />
<glyph unicode="&#xe90d;" glyph-name="emergency-kit" d="M593.355 282.033h-46.645v46.645c0 19.17-15.543 34.713-34.713 34.713s-34.713-15.543-34.713-34.713v-46.645h-46.645c-19.17 0-34.713-15.543-34.713-34.713s15.543-34.713 34.713-34.713h46.645v-46.645c0-19.17 15.543-34.713 34.713-34.713s34.713 15.543 34.713 34.713v46.645h46.645c19.17 0 34.713 15.543 34.713 34.713s-15.543 34.713-34.713 34.713zM868.759 781.017h-83.403v49.659c0 71.311-58.013 129.324-129.327 129.324h-288.061c-71.311 0-129.324-58.013-129.324-129.324v-49.659h-83.403c-85.599 0-155.241-69.642-155.241-155.241v-539.355c0-82.944 67.477-150.421 150.418-150.421h723.161c82.944 0 150.421 67.477 150.421 150.421v539.355c0 85.599-69.642 155.241-155.241 155.241zM308.069 830.676c0 33.030 26.872 59.902 59.902 59.902h288.061c33.030 0 59.902-26.872 59.902-59.902v-49.659h-407.866v49.659zM155.241 711.592h713.518c47.318 0 85.816-38.498 85.816-85.816v-23.742h-885.15v23.742c0 47.318 38.498 85.816 85.816 85.816zM725.695 532.609h49.897v-49.897h-49.897v49.897zM248.408 532.609h49.897v-49.897h-49.897v49.897zM954.575 86.421c0-44.66-36.336-80.996-80.996-80.996h-723.161c-44.66 0-80.993 36.336-80.993 80.996v446.188h109.558v-84.609c0-19.17 15.543-34.713 34.713-34.713h119.322c19.17 0 34.713 15.543 34.713 34.713v84.609h288.544v-84.609c0-19.17 15.543-34.713 34.713-34.713h119.322c19.17 0 34.713 15.543 34.713 34.713v84.609h109.558v-446.188z" />
<glyph unicode="&#xe90e;" glyph-name="eyedropper" d="M265.785 43.199c41.45 0 75.169 33.72 75.169 75.169 0 33.109-42.26 96.859-55.21 115.609-4.53 6.554-11.991 10.471-19.963 10.471s-15.429-3.917-19.963-10.471c-12.95-18.749-55.21-82.496-55.21-115.609 0.007-41.446 33.726-75.169 75.176-75.169zM265.785 175.34c15.388-25.714 26.552-49.018 26.648-56.968 0-14.695-11.954-26.648-26.648-26.648-14.691 0-26.645 11.95-26.648 26.641 0.097 7.958 11.267 31.258 26.648 56.975zM984.612 929.277c-19.815 19.811-46.156 30.723-74.176 30.723s-54.362-10.912-74.176-30.723l-124.494-124.497-25.162 25.162c-13.54 13.533-35.478 13.533-49.014 0-13.536-13.536-13.536-35.481 0-49.014l25.162-25.162-316.595-316.595c-20.183-20.183-33.523-46.856-37.557-75.117l-11.929-83.513c-1.545-10.799 2.089-21.694 9.802-29.406 6.544-6.544 15.384-10.15 24.504-10.15 1.631 0 3.269 0.114 4.903 0.348l83.513 11.929c28.255 4.034 54.931 17.374 75.114 37.554l316.599 316.599 25.162-25.162c6.768-6.765 15.636-10.15 24.507-10.15s17.739 3.386 24.507 10.15c13.536 13.536 13.536 35.481 0 49.014l-25.162 25.162 124.497 124.497c19.815 19.815 30.723 46.156 30.723 74.176s-10.916 54.362-30.727 74.176zM445.488 339.832c-9.647-9.647-22.397-16.022-35.899-17.953l-37.767-5.396 5.396 37.767c1.931 13.509 8.302 26.255 17.953 35.899l110.406 110.406h100.642l-160.73-160.723zM675.53 569.873h-100.642l136.875 136.875 50.321-50.321-86.554-86.554zM935.598 829.942l-124.497-124.497-50.321 50.321 124.497 124.497c13.871 13.877 36.45 13.877 50.321 0 13.871-13.874 13.871-36.45 0-50.321zM901.092 5.315h-857.771c-19.139 0-34.657-15.519-34.657-34.657s15.519-34.657 34.657-34.657h857.771c19.139 0 34.657 15.519 34.657 34.657s-15.519 34.657-34.657 34.657z" />
<glyph unicode="&#xe90f;" glyph-name="eye-drops" d="M512 463.505c-50.348 0-91.305-40.96-91.305-91.305 0-50.348 40.96-91.305 91.305-91.305s91.305 40.96 91.305 91.305c0 50.345-40.957 91.305-91.305 91.305zM512 349.803c-12.35 0-22.397 10.047-22.397 22.397s10.047 22.397 22.397 22.397 22.397-10.047 22.397-22.397c0-12.35-10.047-22.397-22.397-22.397zM1012.96 397.476c-10.93 10.126-270.319 247.953-500.96 247.953-26.403 0-53.182-3.186-79.924-8.73-30.375 62.561-74.231 127.479-86.65 145.46-6.43 9.313-17.029 14.874-28.348 14.874s-21.918-5.558-28.348-14.874c-19.559-28.317-117.129-173.046-117.129-241.63 0-6.544 0.476-12.974 1.317-19.294-91.753-59.413-156.534-118.808-161.878-123.759-7.040-6.523-11.040-15.681-11.040-25.276s3.999-18.756 11.040-25.276c10.93-10.126 270.319-247.953 500.96-247.953s490.031 237.827 500.96 247.953c7.040 6.52 11.040 15.681 11.040 25.276s-3.999 18.753-11.040 25.276zM317.078 699.952c40.57-64.433 76.569-134.068 76.569-159.423 0-42.222-34.347-76.569-76.569-76.569s-76.569 34.347-76.569 76.569c0 25.355 35.995 94.991 76.569 159.423zM87.133 372.2c24.969 20.759 64.36 51.796 111.909 83.444 13.898-19.27 32.372-35.019 53.841-45.621-1.8-12.35-2.741-24.976-2.741-37.822 0-50.414 14.357-97.521 39.143-137.516-87.047 46.046-162.626 104.651-202.152 137.516zM512 179.25c-106.393 0-192.946 86.554-192.946 192.946 0 7.761 0.472 15.412 1.369 22.935 78.672 1.789 142.133 66.301 142.133 145.394 0 5.42-0.669 11.361-1.803 17.636 16.332 4.51 33.499 6.982 51.248 6.982 106.393 0 192.946-86.554 192.946-192.946s-86.554-192.946-192.946-192.946zM734.715 234.684c24.786 39.995 39.143 87.102 39.143 137.516s-14.357 97.518-39.143 137.516c87.047-46.046 162.626-104.651 202.149-137.516-39.522-32.865-115.102-91.47-202.149-137.516z" />
<glyph unicode="&#xe910;" glyph-name="helicopter" d="M637.038 419.511h-28.489v28.489c0 13.409-10.868 24.276-24.276 24.276s-24.276-10.868-24.276-24.276v-28.489h-28.489c-13.409 0-24.276-10.868-24.276-24.276s10.868-24.276 24.276-24.276h28.489v-28.489c0-13.409 10.868-24.279 24.276-24.279s24.276 10.868 24.276 24.279v28.489h28.489c13.409 0 24.279 10.868 24.279 24.276s-10.868 24.276-24.279 24.276zM382.373 470.545v-70.663c0-73.056 29.441-131.334 85.13-168.529 24.407-16.301 53.369-28.355 86.547-36.181v-55.848h-70.232c-19.153 0-34.682-15.529-34.682-34.682s15.529-34.682 34.682-34.682h381.507c19.153 0 34.682 15.529 34.682 34.682s-15.529 34.682-34.682 34.682h-70.232v46.27c145.998 9.871 228.907 83.382 228.907 205.179 0 145.342-118.246 263.585-263.585 263.585h-44.222v102.317h227.169c19.153 0 34.682 15.529 34.682 34.682s-15.529 34.682-34.682 34.682h-523.705c-19.153 0-34.682-15.529-34.682-34.682s15.529-34.682 34.682-34.682h227.169v-102.314h-69.791c-78.748 0-146.673-47.028-177.297-114.454h-186.916c-14.533 43.284-55.455 74.566-103.572 74.566-60.24 0.003-109.251-49.007-109.251-109.247s49.011-109.251 109.251-109.251c48.118 0 89.040 31.282 103.572 74.566h169.55zM109.251 465.342c-21.99 0-39.884 17.894-39.884 39.884s17.894 39.884 39.884 39.884 39.884-17.894 39.884-39.884c0-21.994-17.894-39.884-39.884-39.884zM951.472 425.455h-156.375v156.375c79.331-14.364 142.008-77.041 156.375-156.375zM451.739 399.882v59.816c0 69.091 56.206 125.297 125.297 125.297h148.694v-194.222c0-19.153 15.529-34.682 34.682-34.682h190.53c-15.374-67.912-79.244-102.314-190.53-102.314h-105.344c-92.756 0-203.328 25.348-203.328 146.104zM623.416 139.324v46.039c10.271-0.614 20.804-0.952 31.651-0.952h70.663v-45.087h-102.314z" />
<glyph unicode="&#xe911;" glyph-name="hospital" d="M961.698 735.151h-190.65v190.65c0 18.887-15.312 34.199-34.199 34.199h-449.698c-18.887 0-34.199-15.312-34.199-34.199v-190.65h-190.65c-18.887 0-34.199-15.312-34.199-34.199v-730.757c0-18.887 15.312-34.199 34.199-34.199h899.396c18.887 0 34.199 15.312 34.199 34.199v730.76c-0.003 18.884-15.315 34.195-34.199 34.195zM321.35 891.606h381.3v-212.664h-381.3v212.664zM433.773 4.394v212.664h57.709v-212.664h-57.709zM532.518 4.394v212.664h57.709v-212.664h-57.709zM927.499 4.394h-268.878v246.863c0 18.887-15.312 34.199-34.199 34.199h-224.849c-18.887 0-34.199-15.312-34.199-34.199v-246.863h-268.874v662.363h156.455v-22.014c0-18.887 15.312-34.199 34.199-34.199h449.698c18.887 0 34.199 15.312 34.199 34.199v22.014h156.455v-662.363zM568.213 819.471h-22.014v22.014c0 18.887-15.312 34.199-34.199 34.199s-34.199-15.312-34.199-34.199v-22.014h-22.014c-18.887 0-34.199-15.312-34.199-34.199s15.312-34.199 34.199-34.199h22.014v-22.014c0-18.887 15.312-34.199 34.199-34.199s34.199 15.312 34.199 34.199v22.014h22.014c18.887 0 34.199 15.312 34.199 34.199s-15.315 34.199-34.199 34.199zM287.151 566.515h-112.423c-18.887 0-34.199-15.312-34.199-34.199s15.312-34.199 34.199-34.199h112.423c18.887 0 34.199 15.312 34.199 34.199s-15.312 34.199-34.199 34.199zM568.213 566.515h-112.423c-18.887 0-34.199-15.312-34.199-34.199s15.312-34.199 34.199-34.199h112.423c18.887 0 34.199 15.312 34.199 34.199-0.003 18.887-15.315 34.199-34.199 34.199zM736.849 566.515c-18.887 0-34.199-15.312-34.199-34.199s15.312-34.199 34.199-34.199h112.423c18.884 0 34.199 15.312 34.199 34.199s-15.312 34.199-34.199 34.199h-112.423zM287.151 454.092h-112.423c-18.887 0-34.199-15.312-34.199-34.199s15.312-34.199 34.199-34.199h112.423c18.887 0 34.199 15.312 34.199 34.199s-15.312 34.199-34.199 34.199zM568.213 454.092h-112.423c-18.887 0-34.199-15.312-34.199-34.199s15.312-34.199 34.199-34.199h112.423c18.887 0 34.199 15.312 34.199 34.199-0.003 18.887-15.315 34.199-34.199 34.199zM849.272 454.092h-112.423c-18.887 0-34.199-15.312-34.199-34.199s15.312-34.199 34.199-34.199h112.423c18.884 0 34.199 15.312 34.199 34.199s-15.312 34.199-34.199 34.199zM287.151 341.666h-112.423c-18.887 0-34.199-15.312-34.199-34.199s15.312-34.199 34.199-34.199h112.423c18.887 0 34.199 15.312 34.199 34.199s-15.312 34.199-34.199 34.199zM287.151 229.243h-112.423c-18.887 0-34.199-15.312-34.199-34.199s15.312-34.199 34.199-34.199h112.423c18.887 0 34.199 15.312 34.199 34.199s-15.312 34.199-34.199 34.199zM287.151 116.82h-112.423c-18.887 0-34.199-15.312-34.199-34.199 0-18.884 15.312-34.199 34.199-34.199h112.423c18.887 0 34.199 15.312 34.199 34.199 0 18.884-15.312 34.199-34.199 34.199zM849.272 229.243h-112.423c-18.887 0-34.199-15.312-34.199-34.199s15.312-34.199 34.199-34.199h112.423c18.884 0 34.199 15.312 34.199 34.199s-15.312 34.199-34.199 34.199zM849.272 116.82h-112.423c-18.887 0-34.199-15.312-34.199-34.199 0-18.884 15.312-34.199 34.199-34.199h112.423c18.884 0 34.199 15.312 34.199 34.199 0 18.884-15.312 34.199-34.199 34.199zM849.272 341.666h-112.423c-18.887 0-34.199-15.312-34.199-34.199s15.312-34.199 34.199-34.199h112.423c18.884 0 34.199 15.312 34.199 34.199s-15.312 34.199-34.199 34.199z" />
<glyph unicode="&#xe912;" glyph-name="hospital-1" d="M989.639 960h-955.278c-18.973 0-34.361-15.388-34.361-34.361v-955.275c0-18.977 15.388-34.364 34.361-34.364h955.275c18.977 0 34.361 15.388 34.361 34.361v955.278c0.003 18.973-15.384 34.361-34.357 34.361zM955.275 4.725h-886.55v886.55h886.55v-886.55zM231.038 132.674h168.577c18.977 0 34.361 15.388 34.361 34.361v162.316l156.048-0.003v-162.313c0-18.977 15.388-34.361 34.361-34.361h168.577c18.977 0 34.361 15.388 34.361 34.361v561.928c0 18.977-15.388 34.361-34.361 34.361h-168.577c-18.977 0-34.361-15.388-34.361-34.361v-162.313l-156.048 0.003v162.309c0 18.977-15.388 34.361-34.361 34.361h-168.577c-18.977 0-34.361-15.388-34.361-34.361v-561.924c-0.003-18.977 15.384-34.364 34.361-34.364zM265.399 694.601h99.852v-162.309c0-18.977 15.388-34.361 34.361-34.361l224.773-0.003c9.113 0 17.853 3.62 24.3 10.064 6.444 6.447 10.064 15.184 10.064 24.3v162.309h99.852v-493.203h-99.852v162.313c0 18.977-15.388 34.361-34.361 34.361l-224.773 0.003c-9.113 0-17.853-3.62-24.3-10.064-6.444-6.447-10.064-15.184-10.064-24.3v-162.316h-99.852v493.206z" />
<glyph unicode="&#xe913;" glyph-name="hospital-bed" d="M939.66 385.812h50.262c18.818 0 34.078 15.257 34.078 34.078v112.454c0 18.818-15.257 34.078-34.078 34.078h-837.429v269.205h75.159c-18.604-12.564-30.858-33.84-30.858-57.93v-97.118c0-38.519 31.337-69.856 69.856-69.856h40.891c38.519 0 69.856 31.337 69.856 69.856v97.111c0 38.519-31.337 69.856-69.856 69.856h-40.891c-3.665 0-7.234-0.369-10.747-0.914 5.596 6.072 9.044 14.157 9.044 23.066 0 18.818-15.257 34.078-34.078 34.078h-112.454c-18.818 0-34.078-15.257-34.078-34.078v-303.28h-50.259c-18.818 0-34.078-15.257-34.078-34.078v-112.454c0-18.818 15.257-34.078 34.078-34.078h50.262v-219.674c-32.947-13.477-56.227-45.866-56.227-83.606 0-49.793 40.508-90.302 90.302-90.302s90.302 40.508 90.302 90.302c0 37.74-23.28 70.128-56.227 83.606v70.956l148.718 148.718h421.578l148.718-148.718v-70.956c-32.947-13.477-56.227-45.866-56.227-83.606 0-49.793 40.508-90.302 90.302-90.302s90.302 40.508 90.302 90.302c0 37.74-23.28 70.128-56.227 83.606v219.677zM264.944 777.69c0 0.938 0.765 1.703 1.703 1.703h40.891c0.938 0 1.703-0.765 1.703-1.703v-97.118c0-0.938-0.765-1.703-1.703-1.703h-40.891c-0.938 0-1.703 0.765-1.703 1.703v97.118zM118.415 60.38c-12.212 0-22.149 9.937-22.149 22.149s9.937 22.149 22.149 22.149 22.149-9.937 22.149-22.149c0.003-12.212-9.937-22.149-22.149-22.149zM152.493 333.477v52.334h52.334l-52.334-52.334zM905.585 60.38c-12.212 0-22.149 9.937-22.149 22.149s9.937 22.149 22.149 22.149c12.212 0 22.149-9.937 22.149-22.149s-9.937-22.149-22.149-22.149zM871.507 333.477l-52.334 52.334h52.334v-52.334zM955.847 453.965h-887.694v44.301h887.694v-44.301z" />
<glyph unicode="&#xe914;" glyph-name="hospital-bed-1" d="M532.939 384.288l-196.208-78.483c-46.576-3.817-83.316-42.915-83.316-90.46 0-50.066 40.726-90.791 90.791-90.791s90.795 40.729 90.795 90.791c0 18.287-5.454 35.316-14.791 49.583l205.569 82.223 205.569-82.227c-9.34-14.267-14.791-31.296-14.791-49.583 0-50.066 40.729-90.791 90.795-90.791s90.791 40.729 90.791 90.795c0 47.545-36.74 86.644-83.316 90.464l-196.208 78.483 198.611 79.444h72.294c19.039 0 34.478 15.439 34.478 34.478v119.377c0 19.039-15.439 34.478-34.478 34.478h-101.71v25.859c0 19.039-15.439 34.478-34.478 34.478h-284.444c-19.039 0-34.478-15.439-34.478-34.478v-25.859h-194.843l-292.285 116.915c-10.623 4.241-22.662 2.948-32.134-3.465s-15.15-17.108-15.15-28.548v-119.38c0-14.098 8.582-26.779 21.673-32.013l511.266-201.29zM344.205 193.51c-12.040 0-21.835 9.795-21.835 21.835 0 12.016 9.754 21.794 21.759 21.835 0.028 0 0.055-0.007 0.086-0.007s0.066 0.003 0.097 0.003c11.991-0.059 21.732-9.83 21.732-21.835 0-12.036-9.799-21.832-21.838-21.832zM907.35 193.51c-12.040 0-21.838 9.795-21.838 21.835 0 12.002 9.74 21.773 21.728 21.835 0.034 0 0.066-0.003 0.1-0.003 0.028 0 0.055 0.007 0.086 0.007 12.005-0.041 21.759-9.819 21.759-21.835 0-12.043-9.795-21.838-21.835-21.838zM603.367 643.45h215.488v-101.71h-215.488v101.71zM68.956 686.044l251.17-100.469c4.075-1.627 8.416-2.465 12.805-2.465h201.48v-50.424h-194.843l-270.612 108.247v45.111zM625.778 421.424l-105.772 42.308h211.544l-105.772-42.308zM955.044 532.689h-67.232v50.424h67.232v-50.424z" />
<glyph unicode="&#xe915;" glyph-name="magnetic-resonance-imaging" d="M618.168 877.808c-223.777 0-405.832-182.058-405.832-405.832 0-6.316 0.193-12.588 0.483-18.835h-178.572c-18.915 0-34.247-15.336-34.247-34.247v-159.251c0-18.915 15.336-34.247 34.247-34.247h77.055v-148.976h-23.973c-16.077 0-29.11-13.033-29.11-29.11s13.033-29.11 29.11-29.11h106.168c16.077 0 29.11 13.033 29.11 29.11s-13.033 29.11-29.11 29.11h-23.973v148.976h126.58c74.242-96.742 190.974-159.251 322.064-159.251 223.777 0 405.832 182.058 405.832 405.832s-182.058 405.832-405.832 405.832zM68.494 384.643h734.684c-18.125-38.24-47.766-69.973-84.413-90.757h-650.271v90.757zM413.537 471.973c0 112.833 91.795 204.628 204.628 204.628s204.628-91.795 204.628-204.628c0-6.354-0.331-12.629-0.9-18.835h-407.445c-0.572 6.206-0.91 12.481-0.91 18.835zM618.168 134.635c-88.781 0-169.639 34.488-229.931 90.757h112.688c35.547-16.98 75.29-26.541 117.243-26.541 150.6 0 273.125 122.521 273.125 273.125s-122.525 273.122-273.125 273.122-273.125-122.521-273.125-273.125c0-6.341 0.297-12.609 0.738-18.835h-64.402c-0.348 6.237-0.552 12.512-0.552 18.835 0 168.498 124.176 308.538 285.827 333.41-2.613-4.365-4.141-9.45-4.141-14.908 0-16.077 13.033-29.11 29.11-29.11h53.083c16.077 0 29.11 13.033 29.11 29.11 0 5.458-1.527 10.543-4.141 14.908 161.647-24.873 285.827-164.909 285.827-333.41 0.003-186.009-151.324-337.337-337.334-337.337z" />
<glyph unicode="&#xe916;" glyph-name="medical-app" d="M435.328 631.162h42.594v-42.594c0-18.818 15.257-34.078 34.078-34.078s34.078 15.257 34.078 34.078v42.594h42.594c18.818 0 34.078 15.257 34.078 34.078 0 18.818-15.257 34.078-34.078 34.078h-42.594v42.591c0 18.818-15.257 34.078-34.078 34.078s-34.078-15.257-34.078-34.078v-42.594h-42.594c-18.818 0-34.078-15.257-34.078-34.078 0.003-18.818 15.26-34.075 34.078-34.075zM729.236 960h-434.473c-54.020 0-97.973-43.949-97.973-97.97v-828.061c0-54.020 43.949-97.97 97.97-97.97h434.476c54.020 0 97.97 43.949 97.97 97.97v828.061c0.003 54.020-43.949 97.97-97.97 97.97zM264.944 315.042h74.228c13.484 0 25.7 7.951 31.158 20.283l12.047 27.21 55.258-124.8c5.458-12.329 17.673-20.28 31.158-20.28s25.7 7.951 31.158 20.28l18.046 40.76 8.826-13.284c6.644-10.006 18.067-15.76 30.055-15.184 11.995 0.59 22.793 7.444 28.427 18.046l53.534 100.762 14.836-33.506c5.458-12.333 17.673-20.283 31.158-20.283h74.228v-142.208h-494.116v142.205zM294.764 891.847h434.476c16.443 0 29.817-13.374 29.817-29.817v-478.836h-52.048l-34.226 77.307c-5.279 11.926-16.905 19.794-29.937 20.259-13.043 0.552-25.193-6.547-31.313-18.063l-59.582-112.14-11.564 17.411c-6.882 10.364-18.88 16.16-31.268 15.101-12.398-1.052-23.238-8.778-28.276-20.156l-12.050-27.214-55.258 124.804c-5.458 12.329-17.673 20.28-31.158 20.28s-25.7-7.951-31.158-20.283l-34.226-77.307h-52.048v478.836c0 16.443 13.378 29.817 29.82 29.817zM729.236 4.153h-434.473c-16.443 0-29.817 13.374-29.817 29.817v70.708h494.109v-70.708c0-16.443-13.378-29.817-29.82-29.817zM540.113 87.642h-56.227c-18.818 0-34.078-15.257-34.078-34.078s15.257-34.078 34.078-34.078h56.227c18.818 0 34.078 15.257 34.078 34.078s-15.26 34.078-34.078 34.078z" />
<glyph unicode="&#xe917;" glyph-name="medical-result" d="M609.628 311.718h-62.916v62.916c0 19.17-15.543 34.713-34.713 34.713s-34.713-15.543-34.713-34.713v-62.916h-62.916c-19.17 0-34.713-15.543-34.713-34.713s15.543-34.713 34.713-34.713h62.916v-62.916c0-19.17 15.543-34.713 34.713-34.713s34.713 15.543 34.713 34.713v62.916h62.916c19.17 0 34.713 15.543 34.713 34.713s-15.543 34.713-34.713 34.713zM989.287 572.204h-24.948v323.253c0 19.17-15.543 34.713-34.713 34.713h-835.253c-19.17 0-34.713-15.543-34.713-34.713v-203.931h-24.948c-19.17 0-34.713-15.543-34.713-34.713v-540.865c0-82.775 67.343-150.118 150.118-150.118h723.765c82.775 0 150.118 67.343 150.118 150.118v421.543c0 19.17-15.543 34.713-34.713 34.713zM129.086 860.744h765.828v-288.544h-480.78l-50.069 100.131c-5.882 11.764-17.898 19.191-31.048 19.191h-203.931v169.222zM954.575 115.948c0-44.494-36.199-80.696-80.696-80.696h-723.761c-44.494 0-80.696 36.199-80.696 80.696v506.153h242.14l50.069-100.131c5.882-11.764 17.898-19.191 31.048-19.191h561.897v-386.831zM512 751.838h298.305c13.419 0 24.297 10.878 24.297 24.297s-10.878 24.297-24.297 24.297h-298.305c-13.419 0-24.297-10.878-24.297-24.297s10.878-24.297 24.297-24.297zM416.975 776.135c0 13.419-10.878 24.297-24.297 24.297h-119.322c-13.419 0-24.297-10.878-24.297-24.297s10.878-24.297 24.297-24.297h119.322c13.419 0 24.297 10.878 24.297 24.297zM512 632.517h298.305c13.419 0 24.297 10.878 24.297 24.297s-10.878 24.297-24.297 24.297h-298.305c-13.419 0-24.297-10.878-24.297-24.297s10.878-24.297 24.297-24.297z" />
<glyph unicode="&#xe918;" glyph-name="medicine" d="M536.138 291.145v-166.743c-56.458-3.558-109.151-2.696-139.985-0.841-19.166 1.172-35.716-13.46-36.878-32.668-1.162-19.204 13.464-35.716 32.668-36.878 8.292-0.503 33.671-1.845 68.443-1.845 22.118 0 48.045 0.555 75.752 2.203v-48.697h-142.088c-19.239 0-34.837-15.598-34.837-34.837s15.598-34.837 34.837-34.837h353.849c19.239 0 34.837 15.598 34.837 34.837s-15.598 34.837-34.837 34.837h-142.084v55.151c76.435 9.902 154.128 30.382 197.708 71.401 24.986 23.514 38.191 52.989 38.191 85.233 0 54.437-36.088 92.781-107.268 113.957-36.371 10.823-80.596 17.239-128.631 22.356v65.85c88.267 5.379 170.577 31.099 234.699 73.849 76.838 51.221 119.153 120.756 119.153 195.791 0 19.239-15.598 34.837-34.837 34.837h-707.705c-19.239 0-34.837-15.598-34.837-34.837 0-75.035 42.315-144.57 119.153-195.791 64.122-42.749 146.429-68.47 234.699-73.849v-59.189c-0.396 0.034-0.79 0.072-1.186 0.107-234.761 21.166-400.939 48.669-400.939 210.775 0 194.736 168.457 244.402 235.651 256.465 18.946-32.93 61.799-55.406 112.85-55.406 69.142 0 123.301 41.205 123.301 93.812s-54.165 93.812-123.304 93.812c-54.537 0-99.728-25.648-116.398-62.295-30.165-4.934-82.889-16.953-135.93-45.308-75.659-40.45-165.85-122.049-165.85-281.083 0-106.386 55.062-182.351 163.661-225.787 88.043-35.212 208.462-45.397 308.141-54.382zM482.514 890.323c32.74 0 53.624-15.85 53.624-24.138s-20.883-24.138-53.624-24.138c-32.74 0-53.627 15.85-53.627 24.138s20.883 24.138 53.627 24.138zM714.576 264.632c57.461-17.094 57.461-37.409 57.461-47.173 0-13.084-5.165-24.038-16.256-34.485-29.213-27.514-87.385-43.215-149.969-51.783v152.5c41.591-4.596 79.207-10.264 108.765-19.060zM256.886 654.424h628.177c-10.871-38.136-39.477-73.831-83.206-102.983-61.175-40.781-143.167-63.243-230.883-63.243s-169.712 22.459-230.883 63.243c-43.729 29.148-72.335 64.843-83.206 102.983z" />
<glyph unicode="&#xe919;" glyph-name="medicine-1" d="M995.966 739.219l-136.102 136.099c-18.077 18.077-42.115 28.034-67.684 28.034-25.566 0-49.604-9.957-67.681-28.034l-36.030-36.030c-30.292-30.292-35.992-76.004-17.111-112.106l-283.655-226.925h-352.99c-19.17-0.003-34.713-15.546-34.713-34.716 0-260.755 212.14-472.895 472.895-472.895s472.898 212.14 472.898 472.895c0 19.17-15.543 34.713-34.713 34.713h-103.621l40.367 50.459c36.102-18.884 81.817-13.178 112.102 17.111l36.037 36.030c18.077 18.077 28.034 42.115 28.034 67.681 0 25.572-9.957 49.607-28.034 67.684zM472.895 62.073c-210.782 0-384.331 162.471-401.994 368.761h803.988c-17.66-206.289-191.209-368.761-401.994-368.761zM946.879 652.948l-36.033-36.030c-0.003 0-0.003 0-0.003 0-10.247-10.247-26.931-10.257-37.181-0.003l-6.899 6.899c-6.982 6.978-16.646 10.661-26.465 10.112-9.857-0.545-19.022-5.265-25.186-12.974l-96.556-120.694h-219.722l242.764 194.212c7.713 6.168 12.429 15.329 12.974 25.19s-3.134 19.484-10.119 26.469l-6.892 6.889c-10.254 10.25-10.254 26.931 0 37.185l36.030 36.030c10.243 10.25 26.924 10.257 37.185 0l136.106-136.099c4.961-4.965 7.699-11.567 7.699-18.591-0.003-7.027-2.738-13.629-7.699-18.594zM394.274 211.742h43.908v-43.911c0-19.17 15.543-34.713 34.713-34.713s34.713 15.543 34.713 34.713v43.911h43.911c19.17 0 34.713 15.543 34.713 34.713s-15.543 34.713-34.713 34.713h-43.911v43.908c0 19.17-15.543 34.713-34.713 34.713s-34.713-15.543-34.713-34.713v-43.908h-43.908c-19.17 0-34.713-15.543-34.713-34.713s15.543-34.713 34.713-34.713z" />
<glyph unicode="&#xe91a;" glyph-name="medicine-2" d="M821.303 422.786h-36.064v36.064c0 19.039-15.439 34.478-34.478 34.478s-34.478-15.439-34.478-34.478v-36.064h-36.064c-19.039 0-34.478-15.439-34.478-34.478s15.439-34.478 34.478-34.478h36.064v-36.064c0-19.039 15.439-34.478 34.478-34.478s34.478 15.439 34.478 34.478v36.064h36.064c19.039 0 34.478 15.439 34.478 34.478s-15.439 34.478-34.478 34.478zM153.865 631.699c-9.106 0-17.963-3.689-24.376-10.102-6.447-6.413-10.102-15.308-10.102-24.376s3.655-17.963 10.102-24.376c6.413-6.409 15.308-10.102 24.376-10.102s17.963 3.689 24.376 10.102c6.409 6.413 10.102 15.308 10.102 24.376s-3.689 17.963-10.102 24.376c-6.413 6.413-15.308 10.102-24.376 10.102zM273.229 631.699c-9.068 0-17.963-3.689-24.376-10.102s-10.102-15.308-10.102-24.376 3.686-17.963 10.102-24.376c6.413-6.409 15.308-10.102 24.376-10.102s17.963 3.689 24.373 10.102c6.447 6.413 10.106 15.308 10.106 24.376s-3.658 17.963-10.106 24.376c-6.409 6.413-15.27 10.102-24.373 10.102zM153.865 512.336c-9.068 0-17.963-3.689-24.376-10.102-6.447-6.413-10.102-15.308-10.102-24.376 0-9.102 3.655-17.963 10.102-24.376 6.413-6.444 15.308-10.102 24.376-10.102s17.963 3.658 24.376 10.102c6.409 6.413 10.102 15.277 10.102 24.376 0 9.068-3.689 17.929-10.102 24.376-6.413 6.413-15.308 10.102-24.376 10.102zM273.229 512.336c-9.068 0-17.963-3.689-24.376-10.102s-10.102-15.308-10.102-24.376c0-9.102 3.686-17.963 10.102-24.376 6.413-6.444 15.308-10.102 24.376-10.102s17.963 3.658 24.373 10.102c6.447 6.413 10.106 15.277 10.106 24.376 0 9.068-3.658 17.963-10.106 24.376-6.409 6.413-15.305 10.102-24.373 10.102zM153.865 392.938c-9.106 0-17.963-3.689-24.376-10.102-6.409-6.413-10.102-15.277-10.102-24.376 0-9.068 3.689-17.963 10.102-24.376 6.413-6.409 15.308-10.102 24.376-10.102s17.929 3.689 24.376 10.102c6.409 6.413 10.102 15.308 10.102 24.376s-3.689 17.963-10.102 24.376c-6.413 6.413-15.308 10.102-24.376 10.102zM273.229 392.938c-9.068 0-17.963-3.689-24.376-10.102s-10.102-15.308-10.102-24.376 3.686-17.963 10.102-24.376c6.413-6.409 15.308-10.102 24.376-10.102s17.963 3.689 24.373 10.102c6.413 6.413 10.106 15.308 10.106 24.376s-3.689 17.963-10.106 24.376c-6.409 6.413-15.305 10.102-24.373 10.102zM153.865 273.575c-9.106 0-17.963-3.689-24.376-10.102-6.447-6.413-10.102-15.308-10.102-24.376 0-9.102 3.655-17.963 10.102-24.376 6.413-6.444 15.308-10.133 24.376-10.133s17.963 3.689 24.376 10.133c6.409 6.413 10.102 15.308 10.102 24.376s-3.689 17.929-10.102 24.376c-6.413 6.413-15.308 10.102-24.376 10.102zM273.229 273.575c-9.068 0-17.963-3.689-24.376-10.102s-10.102-15.308-10.102-24.376c0-9.102 3.686-17.963 10.102-24.376 6.447-6.444 15.308-10.133 24.376-10.133s17.963 3.689 24.373 10.133c6.447 6.413 10.106 15.277 10.106 24.376 0 9.068-3.658 17.963-10.106 24.376-6.409 6.413-15.27 10.102-24.373 10.102zM153.865 154.178c-9.068 0-17.963-3.689-24.376-10.102-6.409-6.413-10.102-15.308-10.102-24.376s3.689-17.963 10.102-24.376c6.413-6.409 15.274-10.102 24.376-10.102 9.068 0 17.963 3.689 24.376 10.102 6.409 6.413 10.102 15.308 10.102 24.376 0 9.102-3.689 17.963-10.102 24.376s-15.308 10.102-24.376 10.102zM273.229 154.178c-9.068 0-17.963-3.689-24.376-10.102s-10.102-15.308-10.102-24.376 3.686-17.963 10.102-24.376c6.413-6.409 15.308-10.102 24.376-10.102 9.102 0 17.963 3.689 24.373 10.102 6.447 6.413 10.106 15.308 10.106 24.376s-3.658 17.963-10.106 24.376c-6.409 6.413-15.305 10.102-24.373 10.102zM933.56 800.88v94.798c0 19.039-15.439 34.478-34.478 34.478h-296.639c-19.039 0-34.478-15.439-34.478-34.478v-94.798c-52.896-20.842-90.443-72.407-90.443-132.617v-559.907c0-78.583 63.929-142.512 142.508-142.512h261.458c78.583 0 142.512 63.929 142.512 142.512v559.907c0 60.206-37.547 111.775-90.44 132.617zM546.478 532.902h408.566v-289.185h-408.566v289.185zM636.918 861.2h227.683v-50.424h-227.683v50.424zM620.030 741.819h261.458c40.56 0 73.556-32.996 73.556-73.556v-66.405h-408.566v66.405c0 40.557 32.996 73.556 73.552 73.556zM881.488 34.8h-261.458c-40.557 0-73.552 32.996-73.552 73.556v66.405h408.566v-66.405c0-40.557-32.996-73.556-73.556-73.556zM337.165 751.083h-247.236c-49.586 0-89.929-40.343-89.929-89.933v-605.374c0-49.59 40.343-89.933 89.929-89.933h247.236c49.59 0 89.933 40.343 89.933 89.933v605.374c0 49.59-40.343 89.933-89.933 89.933zM358.141 55.777c0-11.564-9.409-20.976-20.976-20.976h-247.236c-11.564 0-20.973 9.409-20.973 20.976v605.374c0 11.564 9.409 20.976 20.973 20.976h247.236c11.564 0 20.976-9.409 20.976-20.976v-605.374z" />
<glyph unicode="&#xe91b;" glyph-name="medicines" d="M765.018 960c-127.3 0-230.869-103.569-230.869-230.869v-198.959c-54.596 41.708-120.956 64.357-190.829 64.357-84.196 0-163.35-32.789-222.884-92.322s-92.322-138.688-92.322-222.884 32.789-163.35 92.322-222.884 138.688-92.322 222.884-92.322c83.034 0 161.123 31.944 220.367 89.922 39.595-70.38 114.991-118.039 201.332-118.039 127.3 0 230.869 103.569 230.869 230.869v562.262c0 127.3-103.569 230.869-230.869 230.869zM765.018 891.847c89.719 0 162.716-72.994 162.716-162.716v-247.056h-325.432v247.056c0 89.722 72.997 162.716 162.716 162.716zM518.013 454.013c8.664-8.664 16.598-17.86 23.783-27.51 0.062-0.076 0.114-0.152 0.176-0.224 31.42-42.284 48.4-93.315 48.4-146.956 0-54.486-17.563-106.255-49.938-148.925l-346.036 346.040c42.667 32.378 94.436 49.938 148.925 49.938 65.988 0 128.028-25.697 174.69-72.363zM168.629 104.629c-46.666 46.663-72.363 108.703-72.363 174.694 0 54.486 17.563 106.255 49.938 148.925l346.040-346.043c-42.667-32.378-94.436-49.938-148.925-49.938-65.988 0-128.028 25.697-174.69 72.363zM765.018 4.153c-70.994 0-131.475 45.721-153.648 109.251 30.679 49.355 47.159 106.355 47.159 165.916 0 47.325-10.361 93.053-30.003 134.603h299.208v-247.056c0-89.719-72.994-162.713-162.716-162.713z" />
<glyph unicode="&#xe91c;" glyph-name="microscope" d="M815.094 780.903c6.851-6.847 15.822-10.271 24.797-10.271s17.949 3.424 24.797 10.271c13.695 13.695 13.695 35.902 0 49.597l-119.232 119.232c-13.698 13.691-35.899 13.691-49.597 0-13.695-13.695-13.695-35.902 0-49.597l119.236-119.232zM899.506-64c19.366 0 35.068 15.701 35.068 35.068v298.084c0 153.338-73.087 235.913-134.399 278.18-28.076 19.356-56.168 32.065-79.389 40.326l99.307 99.307c13.695 13.695 13.695 35.902 0 49.597l-168.619 168.622c-6.578 6.575-15.498 10.271-24.797 10.271-9.302 0-18.218-3.696-24.797-10.271l-337.241-337.244c-13.695-13.695-13.695-35.902 0-49.597l3.189-3.189-40.781-40.788c-13.695-13.695-13.695-35.899 0.003-49.593l112.688-112.678c6.575-6.575 15.498-10.271 24.797-10.271s18.218 3.696 24.793 10.274l40.774 40.777 3.155-3.155c6.851-6.847 15.822-10.271 24.797-10.271s17.949 3.424 24.797 10.271l87.757 87.757h21.804c0.193 0 0.517 0.003 0.71 0.007 0.786-0.055 79.479 0.724 130.258-49.231 29.889-29.406 45.049-71.832 45.049-126.090v-256.028h-191.554v84.165c0 19.366-15.701 35.068-35.068 35.068h-417.316c-19.366 0-35.068-15.701-35.068-35.068v-119.232c0-19.366 15.701-35.068 35.068-35.068h775.013zM364.53 386.491l-63.092 63.085 15.984 15.984 63.092-63.092-15.984-15.977zM458.059 424.117l-119.025 119.025 287.644 287.647 119.029-119.029-287.647-287.644zM159.561 55.232h347.177v-49.097h-347.177v49.097zM864.439 6.135h-25.869v256.028c0 74.090-22.397 133.52-66.567 176.645-43.146 42.125-97.456 58.516-135.202 64.86l27.369 27.369c16.336-3.448 56.534-14.108 96.197-41.456 69.056-47.607 104.069-121.77 104.069-220.432v-263.013z" />
<glyph unicode="&#xe91d;" glyph-name="nurse" d="M450.195 746.112h24.721v-24.721c0-19.149 15.525-34.671 34.671-34.671s34.671 15.525 34.671 34.671v24.721h24.721c19.149 0 34.671 15.525 34.671 34.671s-15.525 34.671-34.671 34.671h-24.721v24.721c0 19.149-15.525 34.671-34.671 34.671s-34.671-15.525-34.671-34.671v-24.721h-24.721c-19.149 0-34.671-15.525-34.671-34.671s15.522-34.671 34.671-34.671zM340.62 107.436c-44.17-9.571-176.045-41.098-176.045-41.098-15.026-3.51-25.924-16.525-26.738-31.937-0.814-15.408 8.654-29.503 23.228-34.575 139.416-48.524 263.196-63.826 363.858-63.826 57.541 0 107.523 5.003 148.563 11.65 123.783 20.073 195.405 58.751 198.397 60.388 12.781 7.003 19.821 21.245 17.618 35.654s-13.181 25.897-27.472 28.755l-174.959 34.992c-21.042 4.21-36.688 30.906-38.709 53.151h194.612c17.601 0 32.406 13.184 34.437 30.665 30.010 257.862-36.336 379.439-57.872 411.207l62.185 278.207c2.007 8.975 0.365 18.38-4.561 26.141s-12.74 13.253-21.711 15.257c-226.263 50.579-465.455 50.579-691.724 0-8.971-2.003-16.784-7.492-21.711-15.257s-6.568-17.17-4.561-26.141l62.188-278.204c-21.535-31.772-87.885-153.348-57.872-411.207 2.031-17.477 16.843-30.665 34.437-30.665h203.124c-2.024-22.249-17.739-48.614-38.712-53.158zM347.55 308.919c-15.622 23.659-29.141 49.745-40.226 76.786 157.131 4.596 254.869 56.561 303.404 91.701 17.87-26.11 49.252-58.571 103.448-86.040-11.485-29.068-25.838-57.137-42.553-82.448-46.98-71.149-106.041-111.957-162.037-111.957s-115.057 40.808-162.037 111.957zM742.372 581.413c2.589-16.529 2.617-31.048 2.617-41.022 0-25.945-3.503-53.662-9.899-81.658-64.353 35.978-78.038 77.103-79.382 81.658-2.524 12.857-11.885 22.645-24.535 26.155-12.757 3.531-26.179-1.062-34.971-10.95-3.765-4.12-94.701-100.862-311.206-100.911-7.006 29.372-10.809 58.509-10.809 85.706 0 9.975 0.024 24.493 2.617 41.022 153.014 29.417 312.544 29.417 465.568 0zM811.684 229.933h-112.461c10.481 12.522 20.594 26.121 30.268 40.774 35.357 53.545 61.157 116.108 74.507 178.031 10.302-52.462 16.132-124.252 7.685-218.805zM806.395 861.558l-47.542-212.689c-81.896 15.97-165.581 23.955-249.266 23.955-83.689 0-167.371-7.985-249.266-23.955l-47.545 212.689c194.908 38.812 398.712 38.812 593.62 0zM215.216 448.545c13.364-61.861 39.146-124.349 74.466-177.838 9.675-14.653 19.784-28.251 30.268-40.774h-112.461c-8.423 94.38-2.589 166.122 7.727 218.612zM310.558 29.222l44.253 10.337c48.842 10.030 85.623 49.893 92.801 98.132 20.308-6.644 41.046-10.075 61.978-10.075 23.728 0 47.211 4.406 70.094 12.919 6.154-49.704 43.687-91.074 93.784-101.093l51.883-10.378c-91.808-22.728-235.292-39.595-414.792 0.159z" />
<glyph unicode="&#xe91e;" glyph-name="ointment" d="M27.383 244.283c-17.66-17.653-27.383-41.125-27.383-66.098s9.723-48.442 27.379-66.098l148.708-148.708c17.656-17.656 41.129-27.379 66.098-27.379 24.966 0 48.442 9.723 66.098 27.379l653.453 653.45c13.605 13.605 13.605 35.661 0 49.266l-29.793 29.793 84.202 103.124c11.312 13.853 10.295 34.020-2.351 46.663l-104.124 104.12c-12.65 12.647-32.813 13.664-46.663 2.351l-103.124-84.202-29.789 29.789c-6.534 6.53-15.394 10.202-24.635 10.202s-18.098-3.672-24.635-10.202l-653.443-653.45zM396.612 150.24l-182.372 182.372 336.799 336.799 182.372-182.372-336.799-336.799zM259.020 12.645c-9.282-9.282-24.386-9.282-33.664 0l-148.711 148.708c-4.496 4.496-6.975 10.474-6.975 16.832s2.476 12.333 6.975 16.829l88.326 88.326 182.372-182.372-88.323-88.323zM782.677 536.302l-182.372 182.372 105.162 105.162 182.372-182.372-105.162-105.162zM882.429 745.405l-73.028 73.028 73.276 59.83 59.582-59.582-59.83-73.276zM529.677 465.67c-9.523 9.519-24.962 9.523-34.485 0.003l-86.65-86.644c-9.526-9.523-9.526-24.962-0.003-34.485 4.761-4.761 11.002-7.144 17.246-7.144 6.241 0 12.481 2.382 17.243 7.14l86.65 86.644c9.519 9.519 9.519 24.962 0 34.485z" />
<glyph unicode="&#xe91f;" glyph-name="ophthalmology" d="M849.358 960h-674.716c-18.818 0-34.078-15.257-34.078-34.078v-955.847c0-18.818 15.257-34.078 34.078-34.078h674.716c18.818 0 34.078 15.257 34.078 34.078v955.847c-0.003 18.822-15.26 34.078-34.078 34.078zM815.28 4.153h-606.56v887.694h606.563v-887.694zM455.773 622.642c-18.818 0-34.078-15.257-34.078-34.078 0-18.818 15.257-34.078 34.078-34.078h112.454c18.818 0 34.078 15.257 34.078 34.078v224.908c0 18.818-15.257 34.078-34.078 34.078h-112.454c-18.818 0-34.078-15.257-34.078-34.078s15.257-34.078 34.078-34.078h78.376v-44.301h-78.376c-18.818 0-34.078-15.257-34.078-34.078s15.257-34.078 34.078-34.078h78.376v-44.301h-78.376zM328.838 296.986c16.939 0 30.668 13.729 30.668 30.668v59.292h28.627v-59.292c0-16.939 13.729-30.668 30.668-30.668s30.668 13.729 30.668 30.668v59.292h28.624v-59.292c0-16.939 13.729-30.668 30.668-30.668s30.668 13.729 30.668 30.668v89.96c0 16.939-13.729 30.668-30.668 30.668h-179.924c-16.939 0-30.668-13.729-30.668-30.668v-89.96c0-16.939 13.729-30.668 30.668-30.668zM652.705 277.909l69.718-0.003c15.057 0 27.262 12.205 27.262 27.262s-12.202 27.262-27.262 27.262l-42.456 0.003v15.195h42.456c15.057 0 27.262 12.205 27.262 27.262s-12.205 27.262-27.262 27.262h-42.456v15.198l42.456-0.003c15.057 0 27.262 12.205 27.262 27.262s-12.202 27.262-27.262 27.262l-69.718 0.003c-7.23 0-14.164-2.872-19.273-7.982-5.113-5.113-7.985-12.047-7.985-19.277v-139.436c-0.003-15.060 12.202-27.269 27.258-27.269zM561.349 180.343v-42.456h-15.198l0.003 42.456c0 15.057-12.202 27.262-27.262 27.262-15.057 0-27.262-12.205-27.262-27.262l-0.003-42.456h-15.198l0.003 42.456c0 15.057-12.202 27.262-27.262 27.262-15.057 0-27.262-12.205-27.262-27.262l-0.003-69.718c0-7.227 2.872-14.164 7.982-19.273 5.113-5.113 12.047-7.985 19.277-7.985h139.44c15.057 0 27.262 12.205 27.262 27.262v69.718c0 15.057-12.205 27.262-27.262 27.262-15.050-0.003-27.255-12.212-27.255-27.265z" />
<glyph unicode="&#xe920;" glyph-name="otoscope" d="M974.755 646.584l-224.877 224.873c-46.349 46.352-117.305 53.434-171.205 21.29l-57.182 57.182c-13.433 13.426-35.199 13.426-48.631 0-13.429-13.429-13.429-35.202 0-48.631l57.141-57.144c-12.902-21.532-19.79-46.221-19.79-71.973 0-37.505 14.605-72.759 41.122-99.273l88.119-88.119-26.327-26.327-8.806 8.806c-17.667 17.67-41.157 27.403-66.15 27.403-24.99 0-48.48-9.733-66.146-27.4l-399.539-399.543c-19.025-19.022-30.72-43.46-32.937-68.818-2.382-27.214 6.703-53.272 24.921-71.487l66.25-66.253c16.874-16.87 39.405-25.169 62.802-25.169 27.183 0 55.534 11.205 77.51 33.182l399.543 399.543c36.471 36.474 36.471 95.818 0 132.296l-8.809 8.809 26.324 26.324 88.119-88.119c6.716-6.713 15.515-10.071 24.317-10.071s17.601 3.358 24.317 10.071l149.914 149.914c13.429 13.433 13.429 35.206 0 48.635zM621.94 417.356l-399.546-399.539c-13.602-13.598-33.713-17.349-43.046-8.013l-66.25 66.25c-5.213 5.213-5.396 12.805-5.041 16.867 0.8 9.137 5.554 18.677 13.053 26.172l399.543 399.546c4.679 4.679 10.899 7.254 17.511 7.254 6.62 0 12.84-2.576 17.515-7.258l66.253-66.246c9.664-9.657 9.664-25.376 0.007-35.033zM800.523 520.987l-200.559 200.556c-13.526 13.526-20.976 31.51-20.976 50.641 0 19.122 7.444 37.098 20.959 50.624 0.007 0.007 0.014 0.010 0.017 0.017 0.003 0.003 0.010 0.010 0.014 0.017 13.964 13.95 32.292 20.925 50.628 20.925 18.339 0 36.681-6.982 50.641-20.942l200.556-200.556-101.279-101.283z" />
<glyph unicode="&#xe921;" glyph-name="oxygen" d="M815.583 803.297c13.415-32.337 45.308-55.144 82.437-55.144 49.19 0 89.212 40.022 89.212 89.212s-40.019 89.212-89.212 89.212c-37.129 0-69.025-22.807-82.437-55.144h-48.935v54.5c0 18.815-15.253 34.068-34.068 34.068s-34.068-15.253-34.068-34.068v-54.5h-147.801c-70.539 0-127.928-57.389-127.928-127.928v-529.18c0-32.968-26.824-59.792-59.792-59.792h-80.937c-32.968 0-59.792 26.821-59.792 59.792v272.777c27.348 11.226 46.663 38.129 46.663 69.473v15.408c10.399 2.92 19.704 6.62 28.089 11.143 24.6 13.271 53.92 40.781 53.92 96.466 0 73.032-59.344 239.099-157.086 239.099-43.567 0-85.189-33.871-117.205-95.373-24.228-46.539-39.877-102.952-39.877-143.722 0-55.686 29.324-83.196 53.92-96.466 8.382-4.524 17.691-8.223 28.089-11.143v-15.408c0-26.817 14.143-50.379 35.35-63.66v-278.59c0-70.539 57.389-127.924 127.928-127.924h80.941c70.539 0 127.928 57.385 127.928 127.924v529.177c0 32.968 26.824 59.792 59.792 59.792h147.801v-30.089c-93.825-16.219-165.436-98.149-165.436-196.536v-606.604c0-18.815 15.253-34.068 34.068-34.068h330.876c18.815 0 34.068 15.253 34.068 34.068v606.604c0 98.387-71.611 180.317-165.436 196.536v30.089h48.928zM186.909 556.575v82.010c0 3.827 3.113 6.94 6.94 6.94s6.94-3.113 6.94-6.94v-82.010c0-3.827-3.113-6.94-6.94-6.94s-6.94 3.113-6.94 6.94zM104.9 679.593c0 29.699 13.233 75.862 32.182 112.264 22.556 43.325 44.677 58.699 56.768 58.699s34.213-15.374 56.768-58.699c18.946-36.402 32.182-82.565 32.182-112.264 0-11.578-0.024-24.686-14.195-34.268-3.42 38.25-35.633 68.336-74.755 68.336s-71.335-30.086-74.755-68.336c-14.171 9.581-14.195 22.687-14.195 34.268zM898.020 858.445c11.623 0 21.080-9.454 21.080-21.080s-9.454-21.080-21.080-21.080-21.080 9.454-21.080 21.080 9.457 21.080 21.080 21.080zM863.956 576.672v-572.54h-262.74v572.54c0 72.439 58.933 131.372 131.372 131.372s131.369-58.933 131.369-131.372z" />
<glyph unicode="&#xe922;" glyph-name="phonendoscope" d="M953.079 879.694c-14.612 32.203-45.659 52.207-81.020 52.207h-93.067c-2.92 15.977-16.884 28.1-33.702 28.1-18.935 0-34.288-15.353-34.288-34.288v-56.203c0-18.935 15.353-34.288 34.288-34.288 16.822 0 30.786 12.123 33.702 28.103h93.067c11.864 0 16.943-8.371 18.577-11.971 1.631-3.6 4.586-12.933-3.224-21.863 0 0-99.78-129.9-142.629-163.006-20.728-16.015-93.722-46.863-93.722-46.863-57.13-28.569-125.345-28.569-182.482 0 0 0-72.983 30.841-93.712 46.856-42.853 33.106-142.633 163.009-142.633 163.009-7.813 8.93-4.855 18.263-3.224 21.863 1.634 3.6 6.713 11.971 18.577 11.971h93.067c2.917-15.977 16.88-28.103 33.702-28.103 18.935 0 34.288 15.353 34.288 34.288v56.206c0 18.935-15.353 34.288-34.288 34.288-16.818 0-30.786-12.123-33.702-28.1h-93.067c-35.361 0-66.408-20.008-81.020-52.207-14.612-32.206-9.226-68.742 14.064-95.356l344.905-394.181v-234.406c0-83.358-67.818-151.176-151.18-151.176-83.358 0-151.176 67.818-151.176 151.176v110.995c52.907 14.977 91.795 63.667 91.795 121.304 0 69.522-56.561 126.083-126.083 126.083s-126.083-56.561-126.083-126.083c0-57.637 38.891-106.331 91.795-121.304v-110.995c0-121.17 98.58-219.75 219.75-219.75 121.173 0 219.753 98.58 219.753 219.75v234.406l344.909 394.181c23.287 26.614 28.675 63.15 14.064 95.356zM131.382 388.049c0 31.71 25.8 57.509 57.509 57.509s57.509-25.8 57.509-57.509c0-31.71-25.8-57.509-57.509-57.509s-57.509 25.8-57.509 57.509zM559.821 529.665c24.99 0 49.983 3.431 74.19 10.23l-74.19-84.789-74.19 84.789c24.207-6.803 49.193-10.23 74.19-10.23z" />
<glyph unicode="&#xe923;" glyph-name="prescription" d="M303.19 667.757h29.93v-29.93c0-13.426 10.881-24.307 24.307-24.307s24.307 10.881 24.307 24.307v29.93h29.93c13.426 0 24.307 10.881 24.307 24.307s-10.881 24.307-24.307 24.307h-29.93v29.93c0 13.426-10.881 24.307-24.307 24.307s-24.307-10.881-24.307-24.307v-29.93h-29.93c-13.426 0-24.307-10.881-24.307-24.307s10.881-24.307 24.307-24.307zM864.684 787.727l-162.106 162.106c-6.513 6.509-15.343 10.168-24.552 10.168h-494.154c-19.177 0-34.723-15.546-34.723-34.723v-954.554c0-19.177 15.546-34.723 34.723-34.723h656.256c19.177 0 34.723 15.546 34.723 34.723v792.448c0 9.213-3.658 18.042-10.168 24.555zM712.749 841.447l43.553-43.553h-43.553v43.553zM218.595 5.446v885.108h424.708v-127.383c0-19.177 15.546-34.723 34.723-34.723h127.383v-723.006h-586.814zM720.81 531.965h-417.62c-13.426 0-24.307-10.881-24.307-24.307s10.881-24.307 24.307-24.307h417.623c13.426 0 24.307 10.881 24.307 24.307s-10.885 24.307-24.311 24.307zM720.81 412.646h-417.62c-13.426 0-24.307-10.881-24.307-24.307s10.881-24.307 24.307-24.307h417.623c13.426 0 24.307 10.881 24.307 24.307s-10.885 24.307-24.311 24.307zM720.81 293.324h-417.62c-13.426 0-24.307-10.881-24.307-24.307s10.881-24.307 24.307-24.307h417.623c13.426 0 24.307 10.881 24.307 24.307s-10.885 24.307-24.311 24.307zM720.81 174.006h-178.983c-13.426 0-24.307-10.881-24.307-24.307s10.881-24.307 24.307-24.307h178.983c13.426 0 24.307 10.881 24.307 24.307s-10.881 24.307-24.307 24.307z" />
<glyph unicode="&#xe924;" glyph-name="pulse" d="M750.702 891.244c-102.452 0-191.919-56.665-238.702-140.305-46.783 83.637-136.251 140.305-238.702 140.305-150.697 0-273.298-122.601-273.298-273.298 0-88.147 26.893-175.494 79.927-259.617 41.519-65.857 99.1-129.851 171.156-190.212 121.47-101.748 241.33-157.813 246.374-160.151 4.617-2.138 9.581-3.206 14.543-3.206 5.168 0 10.333 1.158 15.101 3.468 5.034 2.441 124.687 60.995 245.984 163.923 71.956 61.057 129.465 125.138 170.932 190.464 53.072 83.609 79.982 169.515 79.982 255.331 0 150.697-122.601 273.298-273.298 273.298zM273.298 822.053c112.543 0 204.107-91.564 204.107-204.107 0-19.104 15.491-34.595 34.595-34.595s34.595 15.491 34.595 34.595c0 112.543 91.564 204.107 204.107 204.107s204.107-91.564 204.107-204.107c0-50.731-11.354-99.031-30.434-144.432h-170.36l-46.387 139.157c-4.592 13.774-17.294 23.214-31.803 23.642-14.45 0.534-27.748-8.251-33.137-21.732l-79.931-199.825-19.818 39.636c-6.258 12.516-19.428 20.077-33.396 19.039-13.957-0.99-25.941-10.295-30.368-23.569l-21.449-64.35-75.721 227.163c-4.71 14.129-17.929 23.655-32.82 23.655s-28.11-9.526-32.82-23.655l-46.383-139.161h-171.536c-18.191 44.904-29.262 93.212-29.262 144.432 0.003 112.543 91.567 204.107 204.11 204.107zM511.652 78.115c-35.113 17.942-126.855 68.018-217.322 144.029-55.389 46.539-116.477 108.344-161.044 182.179h161.633c14.891 0 28.11 9.526 32.82 23.655l21.449 64.35 75.721-227.163c4.71-14.129 17.929-23.655 32.82-23.655s28.11 9.526 32.82 23.655l27.858 83.578 16.918-33.837c6.092-12.185 18.784-19.666 32.382-19.094 13.612 0.565 25.621 9.068 30.682 21.718l73.466 183.665 24.404-73.218c4.71-14.129 17.929-23.655 32.82-23.655h159.261c-108.965-175.107-319.281-295.605-376.687-326.208z" />
<glyph unicode="&#xe925;" glyph-name="radioactive" d="M955.213 703.89c-68.349 118.384-178.71 203.073-310.755 238.454-132.048 35.378-269.964 17.222-388.348-51.131-118.384-68.349-203.073-178.71-238.454-310.755-35.378-132.044-17.222-269.96 51.131-388.348 68.349-118.384 178.71-203.073 310.755-238.454 44.091-11.812 88.833-17.656 133.289-17.656 88.678 0 176.207 23.262 255.059 68.787 118.384 68.349 203.073 178.71 238.454 310.755 35.378 132.044 17.222 269.96-51.131 388.348zM940.197 333.264c-30.644-114.374-104-209.968-206.545-269.174-102.548-59.202-222.011-74.935-336.389-44.287-114.374 30.644-209.968 104-269.174 206.545s-74.931 222.011-44.287 336.389c30.644 114.374 104 209.968 206.545 269.174 68.308 39.436 144.115 59.582 220.932 59.582 38.502 0 77.269-5.061 115.457-15.298 114.374-30.644 209.968-104 269.174-206.545s74.935-222.011 44.287-336.386zM639.976 481.702c-2.975 11.223-7.423 22.132-13.384 32.454-5.961 10.326-13.184 19.632-21.418 27.817l121.746 210.872c4.548 7.878 5.775 17.239 3.41 26.021-2.365 8.785-8.126 16.263-16.012 20.79-125.107 71.835-280.355 71.701-405.359-0.472l-0.783-0.469c-16.322-9.475-21.897-30.379-12.457-46.725l121.935-211.196c-15.891-16.105-27.448-36.105-33.464-58.551-0.048-0.183-0.083-0.362-0.131-0.545h-243.536c-9.085 0-17.794-3.61-24.214-10.033-6.423-6.423-10.026-15.136-10.023-24.221 0.034-70.742 18.846-140.691 54.403-202.28 35.554-61.581 86.723-112.847 147.973-148.249 5.254-3.041 11.171-4.596 17.136-4.596 2.965 0 5.941 0.386 8.854 1.162 8.775 2.351 16.256 8.089 20.797 15.956l121.766 210.906c0.179-0.048 0.355-0.11 0.538-0.159 11.402-3.051 22.969-4.565 34.464-4.565 11.14 0 22.204 1.448 32.982 4.258l121.925-211.185c4.548-7.878 11.995-13.65 20.783-15.991 2.92-0.776 5.892-1.162 8.854-1.162 5.958 0 11.857 1.558 17.111 4.606l0.955 0.538c124.794 72.049 202.531 206.427 202.873 350.698 0.021 9.095-3.579 17.825-10.002 24.262-6.423 6.441-15.143 10.057-24.238 10.057h-243.484zM649.578 755.838l-103.865-179.9c-23.014 6.061-46.701 5.841-69.056-0.393l-103.7 179.614c87.585 39.567 188.747 39.788 276.621 0.679zM314.158 174.878c-38.185 27.672-70.373 63.316-94.167 104.531-23.797 41.215-38.571 86.916-43.442 133.82h207.755c2.972-10.847 7.333-21.39 13.109-31.385 5.772-9.999 12.722-19.046 20.628-27.041l-103.883-179.924zM495.475 386.332c-16.47 4.417-30.241 14.981-38.764 29.748s-10.792 31.972-6.378 48.445c4.417 16.47 14.981 30.241 29.748 38.764 9.837 5.682 20.752 8.578 31.816 8.578 5.544 0 11.126-0.727 16.629-2.2 16.47-4.417 30.241-14.981 38.764-29.748s10.792-31.972 6.378-48.445c-4.417-16.47-14.981-30.241-29.748-38.764-14.764-8.526-31.968-10.785-48.445-6.378zM708.494 173.992l-103.707 179.628c16.577 16.243 28.613 36.643 34.868 59.609h207.731c-10.075-95.694-60.885-183.217-138.892-239.237z" />
<glyph unicode="&#xe926;" glyph-name="samples" d="M990.315 481.685h-56.189v191.812h2.534c18.601 0 33.685 15.081 33.685 33.685v103.676c0 18.601-15.081 33.685-33.685 33.685h-217.316c-18.601 0-33.685-15.081-33.685-33.685v-103.676c0-18.601 15.081-33.685 33.685-33.685h2.538v-191.812h-103.758v191.812h2.534c18.601 0 33.685 15.081 33.685 33.685v103.676c0 18.601-15.081 33.685-33.685 33.685h-217.316c-18.601 0-33.685-15.081-33.685-33.685v-103.676c0-18.601 15.081-33.685 33.685-33.685h2.534v-191.812h-103.758v191.812h2.538c18.601 0 33.685 15.081 33.685 33.685v103.676c0 18.601-15.081 33.685-33.685 33.685h-217.316c-18.601 0-33.685-15.081-33.685-33.685v-103.676c0-18.601 15.081-33.685 33.685-33.685h2.534v-191.812h-56.189c-18.601 0-33.685-15.081-33.685-33.685v-362.855c0-18.601 15.081-33.685 33.685-33.685h956.63c18.601 0 33.685 15.081 33.685 33.685v362.855c0 18.601-15.081 33.685-33.685 33.685zM789.249 523.631h77.51v-249.104c0-21.37-17.384-38.753-38.757-38.753-21.37 0-38.753 17.384-38.753 38.753v249.104zM753.030 777.169h149.949v-36.305h-149.949v36.305zM866.759 673.497v-82.496h-77.51v82.496h77.51zM473.243 523.631h77.514v-249.104c0-21.37-17.384-38.753-38.757-38.753s-38.757 17.384-38.757 38.753v249.104zM437.027 777.169h149.949v-36.305h-149.949v36.305zM550.757 673.497v-82.496h-77.514v82.496h77.514zM157.241 523.631h77.51v-249.104c0-21.37-17.384-38.753-38.753-38.753-21.373 0-38.757 17.384-38.757 38.753v249.104zM121.022 777.169h149.949v-36.305h-149.949v36.305zM234.751 673.497v-82.496h-77.51v82.496h77.51zM956.633 118.831h-889.266v295.484h22.504v-139.788c0-58.516 47.607-106.12 106.124-106.12s106.12 47.604 106.12 106.12v139.788h103.755v-139.788c0-58.516 47.607-106.12 106.124-106.12s106.124 47.604 106.124 106.12v139.788h103.755v-139.788c0-58.516 47.604-106.12 106.12-106.12s106.124 47.604 106.124 106.12v139.788h22.504v-295.484z" />
<glyph unicode="&#xe927;" glyph-name="scissors" d="M991.632 590.732c-20.87 20.873-48.624 32.372-78.141 32.372s-57.268-11.495-78.141-32.368c-18.229-18.229-28.713-41.298-31.516-65.112l-21.090-11.709-204.848 204.852 11.705 21.090c23.811 2.803 46.883 13.288 65.112 31.52 43.084 43.087 43.084 113.195-0.003 156.286-43.087 43.080-113.192 43.080-156.279 0h-0.003c-20.87-20.873-32.368-48.628-32.368-78.141 0-29.52 11.495-57.272 32.368-78.141 6.482-6.482 13.588-11.971 21.111-16.505l-312.968-563.81-196.532-196.532c-13.384-13.384-13.384-35.085 0-48.469 6.692-6.689 15.463-10.037 24.235-10.037s17.542 3.348 24.235 10.037l196.529 196.532 563.81 312.968c4.534-7.523 10.023-14.629 16.505-21.114 21.545-21.545 49.842-32.313 78.138-32.313 28.3 0 56.599 10.774 78.141 32.313 20.87 20.873 32.368 48.628 32.368 78.141 0.003 29.524-11.492 57.275-32.365 78.141zM546.892 879.194c16.367 16.36 42.991 16.356 59.351 0.003 16.363-16.367 16.363-42.991 0-59.351-16.36-16.367-42.984-16.36-59.351 0-7.927 7.927-12.288 18.463-12.288 29.672-0.003 11.209 4.361 21.745 12.288 29.675zM543.289 656.434l177.114-177.118-398.098-220.984 220.984 398.102zM943.163 482.919c-16.356-16.367-42.984-16.356-59.347-0.003-16.363 16.367-16.363 42.991 0 59.351 7.927 7.93 18.463 12.291 29.672 12.291s21.749-4.365 29.675-12.291c7.927-7.927 12.288-18.463 12.288-29.672s-4.358-21.749-12.288-29.675z" />
<glyph unicode="&#xe928;" glyph-name="serum" d="M836.008 5.308h-294.553c-33.495 0-62.409 19.915-75.576 48.514h16.663c19.139 0 34.654 15.515 34.654 34.654v83.168h35.519c77.865 0 141.212 63.347 141.212 141.212v427.456c0 88.654-72.121 160.775-160.775 160.775h-74.866v24.259c0 19.139-15.515 34.654-34.654 34.654s-34.651-15.515-34.651-34.654v-24.259h-74.869c-88.654 0-160.775-72.121-160.775-160.775v-427.46c0-77.865 63.347-141.212 141.212-141.212h35.519v-83.168c0-19.139 15.515-34.654 34.654-34.654h28.279c15.736-67.425 76.3-117.819 148.452-117.819h294.553c19.139 0 34.654 15.515 34.654 34.654 0 19.135-15.519 34.654-34.654 34.654zM314.113 831.783h219.039c50.438 0 91.47-41.032 91.47-91.47v-145.901h-401.977v58.909h51.924c13.398 0 24.259 10.861 24.259 24.259s-10.861 24.259-24.259 24.259h-51.924v38.478c0 50.435 41.032 91.467 91.467 91.467zM223.884 299.858h50.69c13.398 0 24.259 10.861 24.259 24.259s-10.861 24.259-24.259 24.259h-51.924v69.308h51.924c13.398 0 24.259 10.861 24.259 24.259s-10.861 24.259-24.259 24.259h-51.924v58.909h401.977v-212.251c0-39.65-32.258-71.904-71.904-71.904h-258.172c-35.206-0.007-64.526 25.445-70.666 58.902zM447.891 171.641v-48.514h-48.514v48.514h48.514z" />
<glyph unicode="&#xe929;" glyph-name="shirt" d="M213.709 795.222c-5.030 0-9.961-2.048-13.502-5.589-3.575-3.572-5.589-8.468-5.589-13.502 0-4.999 2.014-9.93 5.589-13.502 3.541-3.541 8.471-5.589 13.502-5.589 4.999 0 9.93 2.048 13.471 5.589 3.572 3.572 5.62 8.468 5.62 13.502s-2.048 9.964-5.62 13.502c-3.541 3.544-8.437 5.589-13.471 5.589zM213.709 735.551c-5.030 0-9.961-2.014-13.502-5.585-3.575-3.541-5.589-8.471-5.589-13.505 0-5.030 2.014-9.926 5.589-13.467 3.541-3.572 8.471-5.623 13.502-5.623 4.999 0 9.93 2.051 13.471 5.623 3.572 3.541 5.62 8.437 5.62 13.467 0 5.034-2.048 9.964-5.62 13.505-3.541 3.572-8.437 5.585-13.471 5.585zM739.797 567.215h-29.937v29.937c0 13.419-10.878 24.297-24.297 24.297s-24.297-10.878-24.297-24.297v-29.937h-29.937c-13.419 0-24.297-10.878-24.297-24.297s10.878-24.297 24.297-24.297h29.937v-29.937c0-13.419 10.878-24.297 24.297-24.297s24.297 10.878 24.297 24.297v29.937h29.937c13.419 0 24.297 10.878 24.297 24.297s-10.878 24.297-24.297 24.297zM1020.883 730.848c-1.552 3.41-38.267 83.937-64.626 126.149-29.468 47.187-88.664 73.173-166.688 73.173h-555.139c-78.024 0-137.219-25.986-166.688-73.173-26.359-42.215-63.074-122.739-64.626-126.149-2.055-4.513-3.117-9.413-3.117-14.374v-298.305c0-14.039 8.457-26.7 21.428-32.072 12.974-5.365 27.907-2.403 37.829 7.527l60.064 60.064v-453.146c0-19.17 15.543-34.713 34.713-34.713h715.931c19.17 0 34.713 15.543 34.713 34.713v453.146l60.064-60.064c9.93-9.93 24.859-12.891 37.829-7.527 12.971 5.372 21.428 18.032 21.428 32.072v298.305c0 4.961-1.062 9.861-3.117 14.374zM652.023 860.744c-15.581-62.836-72.435-109.558-140.023-109.558s-124.442 46.725-140.023 109.558h280.045zM954.575 501.972l-60.064 60.064c-9.926 9.93-24.855 12.891-37.829 7.527-12.971-5.372-21.428-18.032-21.428-32.072v-502.236h-646.506v502.236c0 14.039-8.457 26.7-21.428 32.072-12.971 5.365-27.903 2.403-37.829-7.527l-60.064-60.064v206.889c9.295 20.039 37.392 79.627 57.206 111.364 22.838 36.571 82.996 40.519 107.799 40.519h66.736c16.639-101.373 104.824-178.983 210.834-178.983s194.195 77.607 210.834 178.983h66.736c24.804 0 84.964-3.948 107.799-40.522 19.818-31.737 47.911-91.326 57.206-111.364v-206.886z" />
<glyph unicode="&#xe92a;" glyph-name="sling" d="M1019.966 794.912c-4.248 7.895-11.454 13.774-20.039 16.353l-363.106 109.040c-8.585 2.582-17.839 1.645-25.731-2.607-7.895-4.248-13.774-11.454-16.353-20.039l-133.685-445.161-225.428 67.694c-80.489 24.183-165.654-21.642-189.826-102.145l-41.367-137.74c-7.971-26.538-5.127-54.596 8.002-78.996 13.129-24.404 34.978-42.229 61.519-50.2l569.709-171.087c12.991-3.899 26.107-5.758 39.026-5.758 58.451 0 112.588 38.050 130.245 96.839v0.003l209.637 698.071c2.579 8.582 1.645 17.839-2.603 25.731zM893.338 573.831l-96.301 151.824 148.239 21.125-51.938-172.949zM839.332 393.993l-198.953 309.334 83.258 11.864 143.984-227.004-28.289-94.194zM788.873 225.975l-221.743 344.774 24.879 82.841 221.743-344.774-24.879-82.841zM649.747 845.853l164.657-49.449-187.53-26.724 22.873 76.172zM629.357 54.887l-190.526 57.216 122.090 49.19 68.436-106.406zM335.927 143.513c-0.228-0.093-0.438-0.21-0.665-0.307l-134.334 40.339 271.436 115.44 51.334-79.817-187.771-75.655zM191.826 459.054c8.058 0 16.253-1.162 24.359-3.593l48.142-14.457-158.544-58.189 4.744 15.794c11.026 36.695 44.815 60.444 81.299 60.444zM71.952 233.339c-4.575 8.506-5.565 18.28-2.789 27.531l12.34 41.084 289.096 107.137 38.364-11.523 26.31-40.912-334.5-142.26c-0.341-0.145-0.652-0.324-0.986-0.479l-6.396 1.92c-9.247 2.782-16.86 8.995-21.438 17.501zM713.366 49.219l-213.299 331.648c7.709 4.272 13.457 11.374 15.994 19.821l25.49 84.878 221.743-344.767-15.091-50.252c-5.62-18.711-18.618-33.182-34.837-41.329z" />
<glyph unicode="&#xe92b;" glyph-name="syringe" d="M1013.905 799.229l-150.676 150.673c-13.467 13.46-35.292 13.46-48.762 0-13.464-13.464-13.464-35.295 0-48.762l12.709-12.709-142.477-142.481-32.992 32.992c-6.468 6.465-15.236 10.099-24.379 10.099s-17.911-3.634-24.379-10.099l-440.648-440.641c-44.639-44.642-44.639-117.281 0-161.923l14.657-14.657-166.857-166.864c-13.464-13.464-13.464-35.295 0-48.762 6.734-6.727 15.557-10.095 24.379-10.095s17.646 3.369 24.379 10.099l166.86 166.86 14.657-14.657c22.325-22.321 51.645-33.482 80.958-33.482 29.32 0 58.64 11.161 80.962 33.482l440.648 440.644c6.465 6.468 10.099 15.236 10.099 24.379s-3.634 17.911-10.099 24.379l-32.992 32.992 142.481 142.477 12.709-12.709c6.734-6.73 15.557-10.099 24.379-10.099s17.646 3.369 24.379 10.099c13.471 13.467 13.471 35.299 0.007 48.762zM353.539 147.061c-17.749-17.76-46.642-17.753-64.402 0l-78.079 78.079c-17.756 17.753-17.756 46.645 0 64.402l41.094 41.094 37.050-37.050c4.713-4.71 10.892-7.068 17.067-7.068s12.354 2.358 17.067 7.068c9.423 9.426 9.423 24.707 0 34.133l-37.043 37.050 42.36 42.363 37.047-37.047c4.713-4.71 10.892-7.068 17.067-7.068s12.354 2.358 17.067 7.068c9.423 9.426 9.423 24.707 0 34.133l-37.047 37.047 42.36 42.36 37.047-37.047c4.713-4.71 10.892-7.068 17.067-7.068s12.354 2.358 17.067 7.068c9.423 9.426 9.423 24.707 0 34.133l-37.047 37.047 35.050 35.050 142.481-142.481-263.271-263.268zM665.572 459.092l-142.481 142.481 104.231 104.234 142.481-142.481-104.231-104.234zM761.194 669.456l-27.738 27.738 142.481 142.481 27.738-27.738-142.481-142.481z" />
<glyph unicode="&#xe92c;" glyph-name="syrup" d="M870.141 597.256c41.236 0 74.78 33.544 74.78 74.78 0 32.937-42.039 96.356-54.924 115.009-4.51 6.523-11.929 10.416-19.859 10.416s-15.35-3.896-19.859-10.416c-12.881-18.653-54.924-82.075-54.924-115.009 0.007-41.236 33.551-74.78 74.786-74.78zM870.148 728.717c15.301-25.569 26.407-48.752 26.507-56.679 0-14.619-11.892-26.51-26.51-26.51-14.615 0-26.507 11.888-26.51 26.507 0.093 7.909 11.205 31.099 26.514 56.682zM759.805 765.471c35.25 0 63.929 28.679 63.929 63.929 0 26.627-30.82 74.121-44.070 93.305-4.51 6.523-11.929 10.416-19.859 10.416s-15.35-3.896-19.859-10.416c-13.25-19.18-44.070-66.677-44.070-93.305 0-35.25 28.679-63.929 63.929-63.929zM759.808 863.685c8.947-15.653 15.229-29.082 15.657-34.285 0-8.637-7.023-15.66-15.66-15.66-8.578 0-15.574 6.937-15.66 15.494 0.496 5.423 6.765 18.856 15.663 34.451zM443.264 356.116h-28.32v28.32c0 13.329-10.805 24.135-24.135 24.135s-24.135-10.805-24.135-24.135v-28.32h-28.32c-13.329 0-24.135-10.805-24.135-24.135s10.805-24.135 24.135-24.135h28.32v-28.32c0-13.329 10.805-24.135 24.135-24.135s24.135 10.805 24.135 24.135v28.32h28.32c13.329 0 24.135 10.805 24.135 24.135s-10.802 24.135-24.135 24.135zM1015.767 556.927c-6.547 7.689-16.146 12.123-26.245 12.123h-354.818c-12.057 28.282-27.455 55.158-45.959 79.831l-68.294 91.060c14.946 3.772 26.028 17.274 26.028 33.392v119.377c0 19.039-15.439 34.478-34.478 34.478h-238.761c-19.039 0-34.478-15.439-34.478-34.478v-119.38c0-16.119 11.081-29.617 26.028-33.392l-68.294-91.057c-18.504-24.673-33.902-51.548-45.959-79.831h-116.057c-19.039 0-34.478-15.439-34.478-34.478s15.439-34.478 34.478-34.478h94.022c-5.972-27.062-9.119-54.758-9.119-82.551v-335.772c0-65.557 53.334-118.887 118.887-118.887h308.7c65.557 0 118.887 53.334 118.887 118.887v335.772c0 23.324-2.245 46.58-6.472 69.456 31.585-13.533 60.999-29.468 87.805-44.053 45.811-24.924 85.378-46.449 121.728-47.742 2.114-0.072 4.196-0.11 6.258-0.11 100.087 0 140.816 87.033 148.383 133.996 1.61 9.968-1.238 20.146-7.792 27.838zM188.337 440.401h408.566c0.559-7.602 0-229.497 0-229.497h-408.566c0 0-0.559 221.894 0 229.497zM307.717 858.231h169.805v-50.424h-169.805v50.424zM350.17 738.85h84.902l98.507-131.348c22.156-29.541 38.857-62.929 49.548-98.149h-381.018c10.692 35.219 27.393 68.608 49.548 98.149l98.511 131.348zM546.971 31.835h-308.703c-27.531 0-49.931 22.4-49.931 49.931v60.182h408.566v-60.182c0-27.531-22.4-49.931-49.931-49.931zM871.362 464.115c-18.953 0.669-50.721 17.401-84.923 35.978h153.372c-12.133-19.018-33.044-37.34-68.449-35.978z" />
<glyph unicode="&#xe92d;" glyph-name="thermometer" d="M994.356 929.604l-0.948 0.948c-39.267 39.26-103.159 39.26-142.426 0l-660.039-660.035c-55.865 7.858-111.788-12.626-149.725-55.972-56.386-64.422-54.413-163.654 4.489-225.914 31.496-33.292 74.045-51.979 119.805-52.614 0.803-0.014 1.607-0.017 2.41-0.017 44.87 0 86.971 17.425 118.77 49.224 37.326 37.326 54.682 90.198 47.594 141.884l660.070 660.070c39.264 39.267 39.264 103.159 0 142.426zM272.108 163.094c-8.757-8.757-12.185-21.521-8.992-33.489 9.071-33.982-0.703-70.497-25.507-95.301-18.997-19.001-44.27-29.248-71.132-28.879-26.858 0.372-51.841 11.347-70.342 30.906-34.561 36.53-35.737 94.732-2.686 132.499 19.173 21.904 46.149 33.878 74.2 33.878 8.547 0 17.201-1.11 25.759-3.396 11.974-3.196 24.728 0.234 33.489 8.992l459.566 459.562 45.208-45.208-459.562-459.566zM945.269 836.261l-164.516-164.519-45.208 45.208 164.519 164.516c12.202 12.202 32.058 12.202 44.256 0l0.948-0.948c12.202-12.198 12.202-32.054 0-44.256z" />
<glyph unicode="&#xe92e;" glyph-name="thermometer-1" d="M972.407 908.407c-33.271 33.271-77.507 51.593-124.559 51.593s-91.288-18.322-124.559-51.593l-572.681-572.685c-25.979-25.983-40.288-60.526-40.288-97.266l0.003-144.025-100.359-100.352c-13.284-13.284-13.284-34.826 0-48.114 6.644-6.64 15.35-9.964 24.055-9.964s17.411 3.324 24.055 9.964l100.355 100.355h144.022c36.736 0 71.284 14.308 97.27 40.288l572.681 572.685c33.271 33.275 51.596 77.507 51.596 124.556 0 47.056-18.325 91.288-51.593 124.559zM351.615 134.722c-13.133-13.129-30.592-20.363-49.159-20.363h-124.094l-0.003 124.097c0 18.57 7.234 36.023 20.363 49.152l504.236 504.239 152.89-152.89-504.232-504.236zM924.293 707.406l-20.335-20.335-152.89 152.89 20.335 20.335c42.153 42.153 110.737 42.153 152.89 0 42.153-42.149 42.153-110.74 0-152.89zM701.268 637.271c-13.288 13.281-34.823 13.281-48.114 0l-150.752-150.752c-13.284-13.284-13.284-34.826 0-48.114 6.644-6.64 15.35-9.964 24.055-9.964s17.411 3.324 24.055 9.964l150.752 150.752c13.291 13.284 13.291 34.826 0.003 48.114z" />
<glyph unicode="&#xe92f;" glyph-name="walker" d="M824.93 143.896l-39.908 598.623c-5.641 84.599-73.535 151.649-156.951 157.551v25.386c-0.003 19.077-15.467 34.544-34.544 34.544h-237.83c-19.073 0-34.54-15.467-34.54-34.54v-25.386c-83.416-5.906-151.311-72.952-156.948-157.551l-51.072-766.083c-1.272-19.035 13.133-35.492 32.165-36.761 19.094-1.293 35.495 13.136 36.761 32.165l13.705 205.586h557.694l2.958-44.38c-32.778-17.736-55.096-52.431-55.096-92.246 0-57.792 47.018-104.81 104.81-104.81s104.81 47.018 104.81 104.81c0 51.379-37.164 94.205-86.013 103.093zM390.237 890.92h168.75v-49.835h-168.75v49.835zM321.157 830.717v-24.173c0-19.073 15.467-34.54 34.54-34.54h237.83c19.073 0 34.54 15.467 34.54 34.54v24.173c47.121-5.672 84.799-44.377 88.026-92.791l5.013-75.214h-492.985l5.013 75.214c3.231 48.411 40.905 87.116 88.023 92.791zM200.373 246.513l23.142 347.119h502.201l23.142-347.119h-548.485zM806.133 5.080c-19.697 0-35.726 16.029-35.726 35.726s16.029 35.726 35.726 35.726c19.697 0 35.726-16.029 35.726-35.726s-16.029-35.726-35.726-35.726z" />
<glyph unicode="&#xe930;" glyph-name="wheelchair" d="M313.93 462.153c-106.148 0-192.505-86.357-192.505-192.505s86.357-192.505 192.505-192.505 192.509 86.357 192.509 192.505-86.361 192.505-192.509 192.505zM313.93 125.171c-79.665 0-144.477 64.812-144.477 144.477s64.812 144.477 144.477 144.477 144.481-64.812 144.481-144.477-64.815-144.477-144.481-144.477zM781.898 451.375l-16.501 96.511c-2.817 16.477-17.101 28.524-33.816 28.524h-350.884c-21.525 4.679-43.856 7.168-66.763 7.168-27.789 0-54.737-3.648-80.413-10.457v61.943h616.365c18.946 0 34.306 15.36 34.306 34.306s-15.36 34.306-34.306 34.306h-616.365v202.304c0 18.946-15.36 34.306-34.306 34.306h-118.305c-18.946 0-34.306-15.36-34.306-34.306s15.36-34.306 34.306-34.306h83.999v-325.78c-98.121-53.145-164.909-157.041-164.909-276.246 0-173.101 140.829-313.934 313.934-313.934 135.247 0 250.794 85.971 294.864 206.134h147.628v-24.845c0-0.307 0.038-0.603 0.045-0.91-34.626-13.698-59.195-47.487-59.195-86.926 0-51.531 41.925-93.456 93.456-93.456s93.46 41.925 93.46 93.456c0 39.44-24.573 73.228-59.199 86.926 0.007 0.303 0.045 0.603 0.045 0.91 0 0 0 46.414 0 62.040 0 5.051-3.4 19.921-3.4 19.921l19.077-38.153c5.813-11.626 17.687-18.966 30.686-18.966h118.301c18.946 0 34.306 15.36 34.306 34.306s-15.36 34.306-34.306 34.306h-97.097l-110.706 220.919zM313.934 24.326c-135.268 0-245.322 110.051-245.322 245.322s110.051 245.322 245.322 245.322 245.322-110.051 245.322-245.322-110.054-245.322-245.322-245.322zM625.423 230.46c1.607 12.84 2.441 25.917 2.441 39.188 0 95.146-42.556 180.534-109.623 238.151h184.399l47.421-277.339h-124.638zM790.728 24.326c-13.698 0-24.845 11.147-24.845 24.845 0 13.702 11.147 24.848 24.845 24.848 13.702 0 24.848-11.147 24.848-24.848 0-13.698-11.147-24.845-24.848-24.845z" />
<glyph unicode="&#xe931;" glyph-name="x-rays" d="M804.505 521.452c-9.075 22.18-20.383 47.094-28.903 64.529-25.276 51.731-78.841 85.154-136.457 85.154h-92.553v93.405c0 19.104-15.491 34.595-34.595 34.595s-34.595-15.491-34.595-34.595v-93.405h-92.553c-57.616 0-111.178-33.427-136.457-85.154-8.52-17.436-19.825-42.349-28.903-64.529-24.642-60.223-50.083-140.126-61.054-221.26-4.937-36.526 7.675-71.973 34.606-97.256 21.194-19.897 49.111-30.72 77.676-30.717 6.651 0 13.343 0.59 19.99 1.783l186.696 15.426v-26.834c0-19.104 15.491-34.595 34.595-34.595s34.595 15.491 34.595 34.595v26.834l186.696-15.426c6.647-1.196 13.336-1.783 19.99-1.783 28.562 0 56.482 10.819 77.676 30.717 26.927 25.283 39.54 60.73 34.606 97.256-10.971 81.134-36.412 161.037-61.054 221.26zM244.633 379.402h227.883v-11.233l-237.009-27.751c2.744 13.26 5.813 26.265 9.126 38.984zM551.488 379.402h227.883c3.313-12.719 6.382-25.724 9.126-38.981l-237.009 27.751v11.23zM758.222 448.59h-206.734v25.355h197.446c3.138-8.213 6.247-16.667 9.288-25.355zM472.512 448.59h-206.734c3.041 8.685 6.151 17.139 9.292 25.355h197.446v-25.355zM279.273 242.531c-14.436-0.745-28.327 0.948-38.871 10.843-5.072 4.761-8.806 10.461-11.109 16.667 0.083 0.010 0.165 0.003 0.252 0.014l242.971 28.448v-40.057c-0.003 0.003-144.443-13.402-193.243-15.915zM742.759 242.531c-56.344 3.093-191.271 15.919-191.271 15.919v40.057l242.971-28.448c0.086-0.010 0.165-0.003 0.252-0.014-2.303-6.21-6.037-11.905-11.109-16.667-10.543-9.899-26.407-11.64-40.843-10.847zM639.148 601.945c31.375 0 60.537-18.194 74.293-46.345 1.958-4.010 3.958-8.171 5.982-12.467h-167.939v58.813h87.664zM384.852 601.945h87.661v-58.809h-167.936c2.024 4.293 4.024 8.457 5.982 12.467 13.757 28.151 42.918 46.342 74.293 46.342zM112.433 709.189c13.374 0 24.217 10.84 24.217 24.217v89.947h89.947c13.374 0 24.217 10.84 24.217 24.217s-10.84 24.217-24.217 24.217h-114.164c-13.374 0-24.217-10.84-24.217-24.217v-114.16c0-13.381 10.843-24.221 24.217-24.221zM797.406 823.353h89.947v-89.947c0-13.374 10.84-24.217 24.217-24.217s24.217 10.84 24.217 24.217v114.16c0 13.374-10.84 24.217-24.217 24.217h-114.16c-13.374 0-24.217-10.84-24.217-24.217s10.836-24.214 24.214-24.214zM112.433 24.216h114.16c13.374 0 24.217 10.84 24.217 24.217s-10.84 24.217-24.217 24.217h-89.947v89.947c0 13.374-10.84 24.217-24.217 24.217s-24.217-10.84-24.217-24.217v-114.16c0.003-13.378 10.847-24.221 24.221-24.221zM989.405 960h-954.809c-19.104 0-34.595-15.491-34.595-34.595v-954.809c0-19.104 15.491-34.595 34.595-34.595h954.809c19.104 0 34.595 15.491 34.595 34.595v954.809c0 19.104-15.491 34.595-34.595 34.595zM954.809 5.191h-885.619v885.619h885.622v-885.619zM911.567 186.811c-13.374 0-24.217-10.84-24.217-24.217v-89.947h-89.947c-13.374 0-24.217-10.84-24.217-24.217s10.84-24.217 24.217-24.217h114.16c13.374 0 24.217 10.84 24.217 24.217v114.16c0.003 13.381-10.84 24.221-24.214 24.221z" />
</font>
</defs>
</svg>
